<svg width="35" height="35" viewBox="0 0 35 35" fill="none" xmlns="http://www.w3.org/2000/svg">
<path d="M0 17.5C0 7.83502 7.83502 0 17.5 0C27.165 0 35 7.83502 35 17.5C35 27.165 27.165 35 17.5 35C7.83502 35 0 27.165 0 17.5Z" fill="#7D7D7D"/>
<path d="M14.2671 22.8083C14.878 22.8346 15.4898 22.7814 16.0871 22.6501C16.8007 22.4948 17.5355 22.4625 18.26 22.5546C18.6588 22.6034 18.9782 22.6749 19.1991 22.742C19.9852 22.9425 21.1023 22.9046 21.3903 22.443C21.6025 22.1018 21.5748 21.8692 21.3713 21.5688C21.3255 21.5011 21.2738 21.4376 21.2168 21.3792C21.0333 21.2325 20.8527 21.0822 20.675 20.9285C20.2301 20.5454 19.8036 20.1415 19.3968 19.7181C18.9789 19.288 18.5945 18.8265 18.2469 18.3378L18.2206 18.2992C17.6796 17.4686 17.0846 17.5211 16.7608 18.068C16.5568 18.4108 16.3238 18.7355 16.0645 19.0385C15.7655 19.39 15.4593 19.6875 15.1129 19.9843C15.0232 20.0608 14.7461 20.2905 14.8125 20.2351C14.8096 20.2373 14.8001 20.246 14.8497 20.1833C14.7782 20.2708 14.157 20.8228 13.9747 21.0306C13.5991 21.4557 13.4475 21.8181 13.5044 22.1098C13.5569 22.384 13.664 22.5378 13.8325 22.653C13.939 22.7241 14.0576 22.775 14.1825 22.8032L14.2671 22.8083ZM19.4427 17.5029C20.446 18.9394 22.1639 20.2686 22.1639 20.2686C22.1639 20.2686 23.6682 21.5432 22.6284 23.213C21.5886 24.8828 18.7981 24.1449 18.7981 24.1449C18.7981 24.1449 17.6898 23.7876 16.4021 24.0734C15.1151 24.3615 14.006 24.2521 14.006 24.2521C14.006 24.2521 12.3975 24.0734 12.0723 22.3861C11.7471 20.6989 13.5744 19.4403 13.7187 19.2624C13.8609 19.0823 14.8212 18.48 15.5066 17.3243C16.1921 16.1678 18.1193 15.4722 19.4427 17.5029ZM23.4815 16.4675C23.4815 16.8015 23.6201 18.2124 22.3491 18.2408C21.0789 18.2685 21.025 17.3819 21.025 16.746C21.025 16.0803 21.1621 15.1382 22.1844 15.1382C23.2052 15.1382 23.4815 16.1365 23.4815 16.4682V16.4675ZM19.5222 14.4426C18.6618 14.3318 18.4671 13.5516 18.5502 12.7706C18.6202 12.1326 19.3836 11.1526 19.9947 11.2933C20.605 11.4319 21.1613 12.2413 21.049 12.9369C20.9389 13.6347 20.3848 14.5542 19.5222 14.4426ZM15.8647 14.175C15.2376 14.175 14.7272 13.4509 14.7272 12.5562C14.7272 11.6616 15.2369 10.9375 15.8647 10.9375C16.4939 10.9375 17.0022 11.6616 17.0022 12.5562C17.0022 13.4509 16.4939 14.175 15.8647 14.175ZM13.0989 17.5044C11.863 17.7705 11.4029 16.3399 11.5385 15.6705C11.5385 15.6705 11.6844 14.2217 12.6877 14.132C13.4847 14.0627 14.0716 14.9348 14.1322 15.4335C14.1694 15.7573 14.3385 17.2382 13.0989 17.5044Z" fill="#F5F6FA"/>
</svg>
