<svg width="64" height="64" viewBox="0 0 64 64" fill="none" xmlns="http://www.w3.org/2000/svg">
<rect width="64" height="64" rx="32" fill="#13BEBA"/>
<path d="M40.5 28.2072V28.5H34.5V24V23.5H34H25H24.5V24V40V40.5H25H30.8202C31.1469 40.8792 31.5277 41.2169 31.9571 41.5H23.993C23.8623 41.5 23.737 41.4481 23.6446 41.3558C23.5522 41.2635 23.5002 41.1383 23.5 41.0077V22.992C23.5 22.7324 23.7238 22.5 24.002 22.5H34.79L40.5 28.2072ZM32.5 36.9488L32.5 31.5H40.5V36.949C40.5 37.7693 40.0849 38.5389 39.3893 38.9962L39.389 38.9964L36.5 40.8993L33.611 38.9964L33.6098 38.9956C33.2697 38.7731 32.9903 38.4695 32.7966 38.1123C32.6029 37.7551 32.501 37.3555 32.5 36.9492C32.5 36.9491 32.5 36.949 32.5 36.9488ZM34.1604 38.1612L34.1609 38.1615L36.2249 39.5215L36.5 39.7028L36.7751 39.5215L38.8355 38.1639C38.8362 38.1634 38.8368 38.163 38.8375 38.1626C39.0392 38.0317 39.2053 37.8529 39.3209 37.642C39.4369 37.4305 39.4984 37.1935 39.5 36.9522V36.949V33V32.5H39H34H33.5V33V36.949C33.5 37.4383 33.7508 37.8906 34.1604 38.1612Z" stroke="white"/>
</svg>
