<svg width="64" height="64" viewBox="0 0 64 64" fill="none" xmlns="http://www.w3.org/2000/svg">
<rect width="64" height="64" rx="32" fill="#722ED1"/>
<path d="M35.4987 34V33.5H36.4987V34C36.4987 36.6769 35.8601 39.261 34.6572 41.5823L33.7828 41.0949C34.8336 39.0587 35.4221 36.8074 35.4914 34.4708L35.4915 34.4708L35.4916 34.4637L35.4986 34.0077L35.4987 34.0077V34ZM29.2174 40.8762C30.6216 38.9994 31.4182 36.7327 31.4924 34.3818L31.4925 34.3818L31.4926 34.3742L31.4986 34.0082L31.4987 34.0082V34V30.5H32.4987V33.9967L32.4937 34.3688C32.4217 36.9518 31.5472 39.4471 29.9934 41.509L29.2174 40.8762ZM25.7629 38.7989C26.8128 37.5416 27.4234 35.9697 27.4922 34.3239L27.4923 34.3239L27.4926 34.3129L27.4986 34.0099L27.4987 34.0099V34V31C27.4987 29.8065 27.9728 28.6619 28.8167 27.818C29.6606 26.9741 30.8052 26.5 31.9987 26.5C33.1921 26.5 34.3367 26.9741 35.1806 27.818C35.9059 28.5432 36.358 29.4905 36.4708 30.5H35.4628C35.3555 29.7566 35.0109 29.0625 34.4735 28.5251C33.8172 27.8688 32.9269 27.5 31.9987 27.5C31.0704 27.5 30.1802 27.8688 29.5238 28.5251C28.8674 29.1815 28.4987 30.0718 28.4987 31V34C28.4987 36.0413 27.7749 37.9703 26.4882 39.4901L25.7629 38.7989ZM31.9979 22.5H31.9987C34.253 22.5 36.415 23.3955 38.0091 24.9896C39.6031 26.5837 40.4987 28.7457 40.4987 31V34C40.4987 35.6572 40.3017 37.2883 39.9166 38.8685L39.9051 38.9133L38.9404 38.6504C39.2648 37.3265 39.4493 35.9657 39.4904 34.5829L39.4905 34.5829L39.4906 34.5751L39.4986 34.0071L39.4987 34.0071V34V31C39.4987 29.6081 39.1113 28.2436 38.3799 27.0593C37.6486 25.875 36.6021 24.9176 35.3576 24.2942C34.113 23.6708 32.7196 23.4061 31.3331 23.5296C30.0915 23.6402 28.8993 24.0583 27.8632 24.7432L27.143 24.0225C28.563 23.0315 30.2573 22.4974 31.9979 22.5ZM23.0101 35.2775C23.2893 34.6653 23.4541 34.0046 23.4929 33.3203L23.493 33.3203L23.4934 33.3074L23.5024 33.0154L23.5027 33.0077V33L23.5027 31L23.5027 30.9986C23.4976 29.2584 24.0304 27.564 25.0211 26.1443L25.7414 26.8641C24.9788 28.0148 24.5486 29.3572 24.5029 30.7425L24.5029 30.7425L24.5027 30.7507L24.4987 30.9917L24.4986 30.9917L24.4987 31.001L24.5027 33C24.5027 33.0002 24.5027 33.0004 24.5027 33.0005C24.5026 33.9747 24.2877 34.9175 23.8813 35.7751L23.0101 35.2775Z" fill="#09121F" stroke="white"/>
</svg>
