<svg width="83" height="83" viewBox="0 0 83 83" fill="none" xmlns="http://www.w3.org/2000/svg">
<rect width="83" height="83" rx="41.5" fill="#722ED1"/>
<mask id="path-2-outside-1" maskUnits="userSpaceOnUse" x="31.5" y="31.5" width="20" height="23" fill="black">
<rect fill="white" x="31.5" y="31.5" width="20" height="23"/>
<path d="M46 32.5H48.25C48.8467 32.5 49.419 32.7371 49.841 33.159C50.2629 33.581 50.5 34.1533 50.5 34.75V50.5C50.5 51.0967 50.2629 51.669 49.841 52.091C49.419 52.5129 48.8467 52.75 48.25 52.75H34.75C34.1533 52.75 33.581 52.5129 33.159 52.091C32.7371 51.669 32.5 51.0967 32.5 50.5V34.75C32.5 34.1533 32.7371 33.581 33.159 33.159C33.581 32.7371 34.1533 32.5 34.75 32.5H37"/>
</mask>
<path d="M46 31.5C45.4477 31.5 45 31.9477 45 32.5C45 33.0523 45.4477 33.5 46 33.5V31.5ZM48.25 32.5V31.5V32.5ZM32.5 50.5H31.5H32.5ZM34.75 32.5V31.5V32.5ZM37 33.5C37.5523 33.5 38 33.0523 38 32.5C38 31.9477 37.5523 31.5 37 31.5V33.5ZM46 33.5H48.25V31.5H46V33.5ZM48.25 33.5C48.5815 33.5 48.8995 33.6317 49.1339 33.8661L50.5481 32.4519C49.9386 31.8424 49.112 31.5 48.25 31.5V33.5ZM49.1339 33.8661C49.3683 34.1005 49.5 34.4185 49.5 34.75H51.5C51.5 33.888 51.1576 33.0614 50.5481 32.4519L49.1339 33.8661ZM49.5 34.75V50.5H51.5V34.75H49.5ZM49.5 50.5C49.5 50.8315 49.3683 51.1495 49.1339 51.3839L50.5481 52.7981C51.1576 52.1886 51.5 51.362 51.5 50.5H49.5ZM49.1339 51.3839C48.8995 51.6183 48.5815 51.75 48.25 51.75V53.75C49.112 53.75 49.9386 53.4076 50.5481 52.7981L49.1339 51.3839ZM48.25 51.75H34.75V53.75H48.25V51.75ZM34.75 51.75C34.4185 51.75 34.1005 51.6183 33.8661 51.3839L32.4519 52.7981C33.0614 53.4076 33.888 53.75 34.75 53.75V51.75ZM33.8661 51.3839C33.6317 51.1495 33.5 50.8315 33.5 50.5H31.5C31.5 51.362 31.8424 52.1886 32.4519 52.7981L33.8661 51.3839ZM33.5 50.5V34.75H31.5V50.5H33.5ZM33.5 34.75C33.5 34.4185 33.6317 34.1005 33.8661 33.8661L32.4519 32.4519C31.8424 33.0614 31.5 33.888 31.5 34.75H33.5ZM33.8661 33.8661C34.1005 33.6317 34.4185 33.5 34.75 33.5V31.5C33.888 31.5 33.0614 31.8424 32.4519 32.4519L33.8661 33.8661ZM34.75 33.5H37V31.5H34.75V33.5Z" fill="white" mask="url(#path-2-outside-1)"/>
<path d="M44.875 30.25H38.125C37.5037 30.25 37 30.7537 37 31.375V33.625C37 34.2463 37.5037 34.75 38.125 34.75H44.875C45.4963 34.75 46 34.2463 46 33.625V31.375C46 30.7537 45.4963 30.25 44.875 30.25Z" stroke="white" stroke-linecap="round" stroke-linejoin="round"/>
</svg>
