<svg width="64" height="64" viewBox="0 0 64 64" fill="none" xmlns="http://www.w3.org/2000/svg">
<rect width="64" height="64" rx="32" fill="#13BEBA"/>
<path d="M27 23.5H26.5V24V40V40.5H27H37H37.5V40V24V23.5H37H27ZM26 22.5H38C38.1326 22.5 38.2598 22.5527 38.3536 22.6464C38.4473 22.7402 38.5 22.8674 38.5 23V41C38.5 41.1326 38.4473 41.2598 38.3536 41.3536C38.2598 41.4473 38.1326 41.5 38 41.5H26C25.8674 41.5 25.7402 41.4473 25.6464 41.3536C25.5527 41.2598 25.5 41.1326 25.5 41V23C25.5 22.8674 25.5527 22.7402 25.6464 22.6464C25.7402 22.5527 25.8674 22.5 26 22.5ZM32 37.5C32.1326 37.5 32.2598 37.5527 32.3536 37.6464C32.4473 37.7402 32.5 37.8674 32.5 38C32.5 38.1326 32.4473 38.2598 32.3536 38.3536C32.2598 38.4473 32.1326 38.5 32 38.5C31.8674 38.5 31.7402 38.4473 31.6464 38.3536C31.5527 38.2598 31.5 38.1326 31.5 38C31.5 37.8674 31.5527 37.7402 31.6464 37.6464C31.7402 37.5527 31.8674 37.5 32 37.5Z" fill="#09121F" stroke="white"/>
</svg>
