<svg width="35" height="35" viewBox="0 0 35 35" fill="none" xmlns="http://www.w3.org/2000/svg">
<path d="M0 17.5C0 7.83502 7.83502 0 17.5 0C27.165 0 35 7.83502 35 17.5C35 27.165 27.165 35 17.5 35C7.83502 35 0 27.165 0 17.5Z" fill="#7D7D7D"/>
<path d="M10.2109 11.6616C10.2123 11.4701 10.2889 11.2868 10.4242 11.1513C10.5596 11.0158 10.7428 10.939 10.9343 10.9375H24.0709C24.4705 10.9375 24.7943 11.262 24.7943 11.6616V23.3384C24.7929 23.5299 24.7163 23.7132 24.581 23.8487C24.4456 23.9842 24.2624 24.061 24.0709 24.0625H10.9343C10.7424 24.0623 10.5584 23.9859 10.4228 23.8502C10.2871 23.7144 10.2109 23.5303 10.2109 23.3384V11.6616ZM11.6693 12.3958V22.6042H23.3359V12.3958H11.6693ZM13.1276 13.8542H17.5026V18.2292H13.1276V13.8542ZM14.5859 15.3125V16.7708H16.0443V15.3125H14.5859ZM13.1276 19.6875H21.8776V21.1458H13.1276V19.6875ZM18.9609 13.8542H21.8776V15.3125H18.9609V13.8542ZM18.9609 16.7708H21.8776V18.2292H18.9609V16.7708Z" fill="#F5F6FA"/>
</svg>
