<svg width="25" height="24" viewBox="0 0 25 24" fill="none" xmlns="http://www.w3.org/2000/svg">
<path d="M19.1428 2H9.14279C8.03979 2 7.14279 2.897 7.14279 4V9.586L2.43579 14.293C2.29598 14.4329 2.20078 14.611 2.16221 14.805C2.12364 14.9989 2.14344 15.2 2.21911 15.3827C2.29478 15.5654 2.42292 15.7215 2.58733 15.8314C2.75174 15.9413 2.94504 16 3.14279 16V21C3.14279 21.2652 3.24815 21.5196 3.43569 21.7071C3.62322 21.8946 3.87758 22 4.14279 22H20.1428C20.408 22 20.6624 21.8946 20.8499 21.7071C21.0374 21.5196 21.1428 21.2652 21.1428 21V4C21.1428 2.897 20.2458 2 19.1428 2ZM11.1428 20H5.14279V14.414L8.14279 11.414L11.1428 14.414V20ZM19.1428 20H13.1428V16C13.3408 16.0004 13.5344 15.942 13.6991 15.8322C13.8638 15.7224 13.9922 15.5662 14.068 15.3833C14.1437 15.2004 14.1634 14.9991 14.1246 14.805C14.0857 14.6109 13.9901 14.4327 13.8498 14.293L9.14279 9.586V4H19.1428V20Z" fill="#722ED1"/>
<path d="M11.1428 6H13.1428V8H11.1428V6ZM15.1428 6H17.1428V8H15.1428V6ZM15.1428 10.031H17.1428V12H15.1428V10.031ZM15.1428 14H17.1428V16H15.1428V14ZM7.14282 15H9.14282V17H7.14282V15Z" fill="#722ED1"/>
</svg>
