<svg width="17" height="16" viewBox="0 0 17 16" fill="none" xmlns="http://www.w3.org/2000/svg">
<path d="M15.3333 5.54754V0.083374H13.6666V1.75004H3.66659V0.083374H1.99992V5.54754C1.00825 6.12504 0.333252 7.18754 0.333252 8.41671V11.75C0.333252 11.9711 0.421049 12.183 0.57733 12.3393C0.73361 12.4956 0.945572 12.5834 1.16659 12.5834H1.99992V15.9167H3.66659V12.5834H13.6666V15.9167H15.3333V12.5834H16.1666C16.3876 12.5834 16.5996 12.4956 16.7558 12.3393C16.9121 12.183 16.9999 11.9711 16.9999 11.75V8.41671C16.9999 7.18754 16.3241 6.12504 15.3333 5.54754ZM13.6666 3.41671V5.08337H9.49992V3.41671H13.6666ZM3.66659 3.41671H7.83325V5.08337H3.66659V3.41671ZM15.3333 10.9167H1.99992V8.41671C1.99992 7.49754 2.74742 6.75004 3.66659 6.75004H13.6666C14.5858 6.75004 15.3333 7.49754 15.3333 8.41671V10.9167Z" fill="#13BEBA"/>
</svg>
