<svg width="25" height="24" viewBox="0 0 25 24" fill="none" xmlns="http://www.w3.org/2000/svg">
<path d="M20.2857 9.557V3H18.2857V5H6.28571V3H4.28571V9.557C3.09571 10.25 2.28571 11.525 2.28571 13V17C2.28571 17.2652 2.39106 17.5196 2.5786 17.7071C2.76614 17.8946 3.02049 18 3.28571 18H4.28571V22H6.28571V18H18.2857V22H20.2857V18H21.2857C21.5509 18 21.8053 17.8946 21.9928 17.7071C22.1803 17.5196 22.2857 17.2652 22.2857 17V13C22.2857 11.525 21.4747 10.25 20.2857 9.557ZM18.2857 7V9H13.2857V7H18.2857ZM6.28571 7H11.2857V9H6.28571V7ZM20.2857 16H4.28571V13C4.28571 11.897 5.18271 11 6.28571 11H18.2857C19.3887 11 20.2857 11.897 20.2857 13V16Z" fill="#722ED1"/>
</svg>
