<svg width="25" height="24" viewBox="0 0 25 24" fill="none" xmlns="http://www.w3.org/2000/svg">
<path d="M9.7634 16.5H15.9509C16.054 16.5 16.1384 16.4156 16.1384 16.3125V14.3437C16.1384 14.2406 16.054 14.1562 15.9509 14.1562H15.0134C14.9103 14.1562 14.8259 14.2406 14.8259 14.3437V15.1875H10.8884V14.3437C10.8884 14.2406 10.804 14.1562 10.7009 14.1562H9.7634C9.66028 14.1562 9.5759 14.2406 9.5759 14.3437V16.3125C9.5759 16.4156 9.66028 16.5 9.7634 16.5ZM17.7322 13.6172C17.7322 13.8658 17.8309 14.1043 18.0067 14.2801C18.1826 14.4559 18.421 14.5547 18.6697 14.5547C18.9183 14.5547 19.1567 14.4559 19.3326 14.2801C19.5084 14.1043 19.6072 13.8658 19.6072 13.6172C19.6072 13.3685 19.5084 13.1301 19.3326 12.9543C19.1567 12.7784 18.9183 12.6797 18.6697 12.6797C18.421 12.6797 18.1826 12.7784 18.0067 12.9543C17.8309 13.1301 17.7322 13.3685 17.7322 13.6172ZM23.3337 9.68904L22.7782 8.71873C22.7533 8.67595 22.7124 8.64479 22.6645 8.63206C22.6167 8.61933 22.5657 8.62605 22.5228 8.65076L21.3345 9.34451L19.4993 4.27732C19.4024 3.97496 19.212 3.71122 18.9554 3.52417C18.6989 3.33713 18.3895 3.23646 18.072 3.23669H7.91653C7.10325 3.23669 6.38137 3.76169 6.13059 4.53748L4.38215 9.34685L3.19153 8.6531C3.1486 8.62839 3.09764 8.62167 3.04978 8.6344C3.00191 8.64714 2.96103 8.6783 2.93606 8.72107L2.38059 9.68904C2.32903 9.7781 2.3595 9.8906 2.44856 9.94216L3.86418 10.7672L3.52434 11.7047C3.49621 11.7797 3.48215 11.8594 3.48215 11.939V20.1C3.48215 20.4679 3.75871 20.7656 4.09856 20.7656H5.68293C5.97121 20.7656 6.22199 20.5476 6.28293 20.2429L6.4634 19.3594H19.2509L19.4314 20.2429C19.4947 20.5476 19.7431 20.7656 20.0314 20.7656H21.6157C21.9556 20.7656 22.2322 20.4679 22.2322 20.1V11.939C22.2322 11.8594 22.2181 11.7797 22.19 11.7047L21.8501 10.7672L23.2634 9.94216C23.3059 9.9176 23.3372 9.87731 23.3503 9.82997C23.3634 9.78264 23.3575 9.73203 23.3337 9.68904ZM20.5447 12.1172V17.6719H5.16965V12.1172L5.53528 11.1094H20.179L20.5447 12.1172ZM7.71731 5.11169L7.72903 5.08123L7.7384 5.05076C7.76418 4.97341 7.8345 4.92185 7.91653 4.92185H17.9384L19.7056 9.79685H6.0134L7.71731 5.11169ZM6.10715 13.6172C6.10715 13.8658 6.20592 14.1043 6.38174 14.2801C6.55755 14.4559 6.79601 14.5547 7.04465 14.5547C7.29329 14.5547 7.53175 14.4559 7.70756 14.2801C7.88338 14.1043 7.98215 13.8658 7.98215 13.6172C7.98215 13.3685 7.88338 13.1301 7.70756 12.9543C7.53175 12.7784 7.29329 12.6797 7.04465 12.6797C6.79601 12.6797 6.55755 12.7784 6.38174 12.9543C6.20592 13.1301 6.10715 13.3685 6.10715 13.6172Z" fill="#722ED1"/>
</svg>
