<svg width="15" height="14" viewBox="0 0 15 14" fill="none" xmlns="http://www.w3.org/2000/svg">
<g id="remix-icons/line/buildings/home-8-line" clip-path="url(#clip0_1043_12263)">
<g id="Group">
<path id="Vector" d="M3.23828 6.41678V5.91678H2.73828H2.2816L7.3487 1.31042L7.34887 1.31027C7.36421 1.29631 7.3842 1.28857 7.40495 1.28857C7.42569 1.28857 7.44569 1.29631 7.46103 1.31027L7.4612 1.31042L12.5283 5.91678H12.0716H11.5716V6.41678V11.6668C11.5716 11.6889 11.5628 11.7101 11.5472 11.7257C11.5316 11.7413 11.5104 11.7501 11.4883 11.7501H3.32161C3.29951 11.7501 3.27832 11.7413 3.26269 11.7257C3.24706 11.7101 3.23828 11.6889 3.23828 11.6668V6.41678ZM3.40495 11.0834V11.5834H3.90495H10.9049H11.4049V11.0834V5.3417V5.1205L11.2413 4.97171L7.74127 1.79021L7.40495 1.4845L7.06863 1.79021L3.56863 4.97171L3.40495 5.1205V5.3417V11.0834ZM6.82161 6.50012H6.32161V7.00012V8.16678V8.66678H6.82161H7.98828H8.48828V8.16678V7.00012V6.50012H7.98828H6.82161ZM6.15495 6.33345H8.65495V8.83345H6.15495V6.33345Z" fill="#13BEBA" stroke="#13BEBA"/>
</g>
</g>
<defs>
<clipPath id="clip0_1043_12263">
<rect width="14" height="14" fill="white" transform="translate(0.40625)"/>
</clipPath>
</defs>
</svg>
