<svg width="64" height="64" viewBox="0 0 64 64" fill="none" xmlns="http://www.w3.org/2000/svg">
<rect width="64" height="64" rx="32" fill="#722ED1"/>
<path d="M40.1081 23.314C40.1082 23.314 40.1083 23.314 40.1084 23.3141C40.3375 23.3653 40.5 23.5681 40.5 23.802V33.789C40.5 35.6278 39.5805 37.3457 38.0508 38.3649L38.0506 38.365L32 42.3991L25.9494 38.365L25.9493 38.3649C24.4184 37.3447 23.5 35.6278 23.5 33.79V23.802C23.5 23.5681 23.6625 23.3653 23.8916 23.3141C23.8917 23.314 23.8918 23.314 23.8919 23.314L32 21.5122L40.1081 23.314ZM32.5 22.6488V22.4257L31.8916 22.5609L24.8916 24.1159L24.5 24.2029V24.604V33.789C24.5 35.2931 25.2515 36.6983 26.5037 37.533L31.7226 41.013L32 41.198L32.2774 41.013L37.4964 37.533C38.7484 36.6983 39.5 35.2942 39.5 33.79V24.604V24.2028L39.1084 24.1159L32.5 22.6488ZM31.8556 33.5246L36.4516 28.9285L37.1598 29.6361L31.503 35.2929L27.9671 31.757L28.674 31.0501L31.1484 33.5246L31.502 33.8781L31.8556 33.5246Z" fill="#09121F" stroke="white"/>
</svg>
