<svg width="35" height="35" viewBox="0 0 35 35" fill="none" xmlns="http://www.w3.org/2000/svg">
<path d="M0 17.5C0 7.83502 7.83502 0 17.5 0C27.165 0 35 7.83502 35 17.5C35 27.165 27.165 35 17.5 35C7.83502 35 0 27.165 0 17.5Z" fill="#7D7D7D"/>
<path d="M17.5026 24.7917C13.4754 24.7917 10.2109 21.5272 10.2109 17.5C10.2109 13.4729 13.4754 10.2084 17.5026 10.2084C21.5298 10.2084 24.7943 13.4729 24.7943 17.5C24.7943 21.5272 21.5298 24.7917 17.5026 24.7917ZM17.5026 23.3334C19.0497 23.3334 20.5334 22.7188 21.6274 21.6248C22.7214 20.5309 23.3359 19.0471 23.3359 17.5C23.3359 15.9529 22.7214 14.4692 21.6274 13.3753C20.5334 12.2813 19.0497 11.6667 17.5026 11.6667C15.9555 11.6667 14.4718 12.2813 13.3778 13.3753C12.2839 14.4692 11.6693 15.9529 11.6693 17.5C11.6693 19.0471 12.2839 20.5309 13.3778 21.6248C14.4718 22.7188 15.9555 23.3334 17.5026 23.3334ZM14.9505 18.9584H18.9609C19.0576 18.9584 19.1504 18.92 19.2187 18.8516C19.2871 18.7832 19.3255 18.6905 19.3255 18.5938C19.3255 18.4971 19.2871 18.4044 19.2187 18.336C19.1504 18.2676 19.0576 18.2292 18.9609 18.2292H16.0443C15.5608 18.2292 15.0971 18.0372 14.7553 17.6953C14.4134 17.3534 14.2214 16.8898 14.2214 16.4063C14.2214 15.9228 14.4134 15.4592 14.7553 15.1173C15.0971 14.7754 15.5608 14.5834 16.0443 14.5834H16.7734V13.125H18.2318V14.5834H20.0547V16.0417H16.0443C15.9476 16.0417 15.8548 16.0801 15.7865 16.1485C15.7181 16.2169 15.6797 16.3096 15.6797 16.4063C15.6797 16.503 15.7181 16.5957 15.7865 16.6641C15.8548 16.7325 15.9476 16.7709 16.0443 16.7709H18.9609C19.4444 16.7709 19.9081 16.9629 20.2499 17.3048C20.5918 17.6467 20.7839 18.1103 20.7839 18.5938C20.7839 19.0773 20.5918 19.5409 20.2499 19.8828C19.9081 20.2247 19.4444 20.4167 18.9609 20.4167H18.2318V21.875H16.7734V20.4167H14.9505V18.9584Z" fill="#F5F6FA"/>
</svg>
