<svg width="15" height="14" viewBox="0 0 15 14" fill="none" xmlns="http://www.w3.org/2000/svg">
<g clip-path="url(#clip0)">
<path d="M7.49991 2.60039L7.23513 2.33561C6.53954 1.64002 5.59612 1.24924 4.61241 1.24924C3.6287 1.24924 2.68528 1.64002 1.98969 2.33561C1.2941 3.0312 0.90332 3.97462 0.90332 4.95833C0.90332 5.94204 1.2941 6.88546 1.98969 7.58105L2.60802 8.19938L7.14635 12.7377C7.34162 12.933 7.6582 12.933 7.85346 12.7377L12.3918 8.19938L13.01 7.58113C13.0101 7.58111 13.0101 7.58108 13.0101 7.58105C13.3546 7.23669 13.6279 6.82784 13.8144 6.37785C14.0008 5.92782 14.0968 5.44546 14.0968 4.95833C14.0968 4.4712 14.0008 3.98884 13.8144 3.53881C13.6279 3.08885 13.3547 2.68003 13.0102 2.33569C13.0102 2.33564 13.0101 2.33558 13.01 2.33553L7.49991 2.60039Z" stroke="#595959" stroke-linecap="round" stroke-linejoin="round"/>
</g>
<defs>
<clipPath id="clip0">
<rect width="14" height="14" fill="white" transform="translate(0.5)"/>
</clipPath>
</defs>
</svg>
