<svg width="25" height="24" viewBox="0 0 25 24" fill="none" xmlns="http://www.w3.org/2000/svg">
<g clip-path="url(#clip0)">
<path d="M21.7143 9V7C21.7143 5.35 20.3643 4 18.7143 4H14.7143C13.9443 4 13.2443 4.3 12.7143 4.78C12.1843 4.3 11.4843 4 10.7143 4H6.71429C5.06429 4 3.71429 5.35 3.71429 7V9C2.06429 9 0.714294 10.35 0.714294 12V17C0.714294 18.65 2.06429 20 3.71429 20V22H5.71429V20H19.7143V22H21.7143V20C23.3643 20 24.7143 18.65 24.7143 17V12C24.7143 10.35 23.3643 9 21.7143 9ZM14.7143 6H18.7143C19.2643 6 19.7143 6.45 19.7143 7V9.78C19.1043 10.33 18.7143 11.12 18.7143 12V14H13.7143V7C13.7143 6.45 14.1643 6 14.7143 6ZM5.71429 7C5.71429 6.45 6.16429 6 6.71429 6H10.7143C11.2643 6 11.7143 6.45 11.7143 7V14H6.71429V12C6.71429 11.12 6.32429 10.33 5.71429 9.78V7ZM22.7143 17C22.7143 17.55 22.2643 18 21.7143 18H3.71429C3.16429 18 2.71429 17.55 2.71429 17V12C2.71429 11.45 3.16429 11 3.71429 11C4.26429 11 4.71429 11.45 4.71429 12V16H20.7143V12C20.7143 11.45 21.1643 11 21.7143 11C22.2643 11 22.7143 11.45 22.7143 12V17Z" fill="#722ED1"/>
</g>
<defs>
<clipPath id="clip0">
<rect width="24" height="24" fill="white" transform="translate(0.714294)"/>
</clipPath>
</defs>
</svg>
