<svg width="14" height="14" viewBox="0 0 14 14" fill="none" xmlns="http://www.w3.org/2000/svg">
<g id="Property 1=trash">
<g id="Vector">
<path d="M1.75 3.5H2.91667H12.25" fill="black" fill-opacity="0.85"/>
<path d="M1.75 3.5H2.91667H12.25" stroke="#595959" stroke-linecap="round" stroke-linejoin="round"/>
</g>
<path id="Vector_2" d="M4.66699 3.50001V2.33334C4.66699 2.02392 4.78991 1.72717 5.0087 1.50838C5.22749 1.28959 5.52424 1.16667 5.83366 1.16667H8.16699C8.47641 1.16667 8.77316 1.28959 8.99195 1.50838C9.21074 1.72717 9.33366 2.02392 9.33366 2.33334V3.50001M11.0837 3.50001V11.6667C11.0837 11.9761 10.9607 12.2728 10.742 12.4916C10.5232 12.7104 10.2264 12.8333 9.91699 12.8333H4.08366C3.77424 12.8333 3.47749 12.7104 3.2587 12.4916C3.03991 12.2728 2.91699 11.9761 2.91699 11.6667V3.50001H11.0837Z" stroke="#595959" stroke-linecap="round" stroke-linejoin="round"/>
</g>
</svg>
