<svg width="20" height="14" viewBox="0 0 20 14" fill="none" xmlns="http://www.w3.org/2000/svg">
<path d="M1.4563 2.78605C1.4563 2.34402 1.63189 1.9201 1.94445 1.60754C2.25701 1.29498 2.68094 1.11938 3.12297 1.11938H16.4563C16.8983 1.11938 17.3222 1.29498 17.6348 1.60754C17.9474 1.9201 18.123 2.34402 18.123 2.78605V11.1194C18.123 11.5614 17.9474 11.9853 17.6348 12.2979C17.3222 12.6105 16.8983 12.7861 16.4563 12.7861H3.12297C2.68094 12.7861 2.25701 12.6105 1.94445 12.2979C1.63189 11.9853 1.4563 11.5614 1.4563 11.1194V2.78605Z" stroke="#13BEBA" stroke-width="2" stroke-linecap="round" stroke-linejoin="round"/>
<path d="M9.78967 9.4527C11.1704 9.4527 12.2897 8.33341 12.2897 6.9527C12.2897 5.57199 11.1704 4.4527 9.78967 4.4527C8.40896 4.4527 7.28967 5.57199 7.28967 6.9527C7.28967 8.33341 8.40896 9.4527 9.78967 9.4527Z" stroke="#13BEBA" stroke-width="2" stroke-linecap="round" stroke-linejoin="round"/>
<path d="M1.4563 4.45272C2.34035 4.45272 3.1882 4.10153 3.81332 3.47641C4.43844 2.85129 4.78963 2.00344 4.78963 1.11938" stroke="#13BEBA" stroke-width="2" stroke-linecap="round" stroke-linejoin="round"/>
<path d="M14.7897 12.786C14.7897 11.902 15.1409 11.0541 15.766 10.429C16.3911 9.80389 17.239 9.4527 18.123 9.4527" stroke="#13BEBA" stroke-width="2" stroke-linecap="round" stroke-linejoin="round"/>
</svg>
