<svg width="14" height="14" viewBox="0 0 14 14" fill="none" xmlns="http://www.w3.org/2000/svg">
<path d="M0 -0.5H-0.5V0V14V14.5H0H14H14.5V14V0V-0.5H14H0Z" stroke="#722ED1"/>
<path d="M3.7415 9.33322L9.65767 3.41705L8.83283 2.59222L2.91667 8.50839V9.33322H3.7415ZM4.22508 10.4999H1.75V8.0248L8.42042 1.35439C8.52981 1.24503 8.67815 1.18359 8.83283 1.18359C8.98751 1.18359 9.13586 1.24503 9.24525 1.35439L10.8955 3.00464C11.0049 3.11403 11.0663 3.26237 11.0663 3.41705C11.0663 3.57173 11.0049 3.72008 10.8955 3.82947L4.22508 10.4999V10.4999ZM1.75 11.6666H12.25V12.8332H1.75V11.6666Z" fill="#722ED1"/>
</svg>
