<svg width="35" height="35" viewBox="0 0 35 35" fill="none" xmlns="http://www.w3.org/2000/svg">
<path d="M0 17.5C0 7.83502 7.83502 0 17.5 0V0C27.165 0 35 7.83502 35 17.5V17.5C35 27.165 27.165 35 17.5 35V35C7.83502 35 0 27.165 0 17.5V17.5Z" fill="#7D7D7D"/>
<path d="M24.7943 24.0625H10.2109V22.6042H10.9401V11.6667C10.9401 11.4733 11.0169 11.2878 11.1537 11.1511C11.2904 11.0143 11.4759 10.9375 11.6693 10.9375H21.8776C22.071 10.9375 22.2565 11.0143 22.3932 11.1511C22.5299 11.2878 22.6068 11.4733 22.6068 11.6667V15.3125H24.0651V22.6042H24.7943V24.0625ZM21.1484 22.6042H22.6068V16.7708H18.2318V22.6042H19.6901V18.2292H21.1484V22.6042ZM21.1484 15.3125V12.3958H12.3984V22.6042H16.7734V15.3125H21.1484ZM13.8568 16.7708H15.3151V18.2292H13.8568V16.7708ZM13.8568 19.6875H15.3151V21.1458H13.8568V19.6875ZM13.8568 13.8542H15.3151V15.3125H13.8568V13.8542Z" fill="#F5F6FA"/>
</svg>
