<svg width="16" height="16" viewBox="0 0 16 16" fill="none" xmlns="http://www.w3.org/2000/svg">
<path d="M5.28739 2.14314H5.14453C5.2231 2.14314 5.28739 2.07885 5.28739 2.00028V2.14314H10.716V2.00028C10.716 2.07885 10.7802 2.14314 10.8588 2.14314H10.716V3.42885H12.0017V2.00028C12.0017 1.36992 11.4892 0.857422 10.8588 0.857422H5.14453C4.51417 0.857422 4.00167 1.36992 4.00167 2.00028V3.42885H5.28739V2.14314ZM14.2874 3.42885H1.71596C1.39989 3.42885 1.14453 3.68421 1.14453 4.00028V4.57171C1.14453 4.65028 1.20882 4.71456 1.28739 4.71456H2.36596L2.80703 14.0539C2.8356 14.6628 3.33917 15.1431 3.9481 15.1431H12.0552C12.666 15.1431 13.1677 14.6646 13.1963 14.0539L13.6374 4.71456H14.716C14.7945 4.71456 14.8588 4.65028 14.8588 4.57171V4.00028C14.8588 3.68421 14.6035 3.42885 14.2874 3.42885ZM11.9177 13.8574H4.0856L3.65346 4.71456H12.3499L11.9177 13.8574Z" fill="black"/>
</svg>
