<svg width="35" height="35" viewBox="0 0 35 35" fill="none" xmlns="http://www.w3.org/2000/svg">
<path d="M0 17.5C0 7.83502 7.83502 0 17.5 0C27.165 0 35 7.83502 35 17.5C35 27.165 27.165 35 17.5 35C7.83502 35 0 27.165 0 17.5Z" fill="#7D7D7D"/>
<path d="M19.8332 16.0016C19.5169 15.702 19.3135 15.3026 19.2571 14.8706L18.9633 12.6226L16.9726 13.7062C16.5899 13.9147 16.147 13.985 15.7185 13.9052L13.4901 13.4896L13.9058 15.7179C13.9856 16.1464 13.9153 16.5894 13.7067 16.9721L12.6232 18.9627L14.8712 19.2566C15.3029 19.3131 15.702 19.5165 16.0014 19.8326L17.5604 21.4784L18.5345 19.4316C18.7215 19.0383 19.0382 18.7213 19.4314 18.534L21.4789 17.5598L19.8332 16.0016ZM19.8514 20.0579L18.2377 23.4486C18.2072 23.5127 18.1615 23.5684 18.1047 23.6109C18.0478 23.6534 17.9814 23.6814 17.9113 23.6926C17.8412 23.7037 17.7694 23.6976 17.7021 23.6748C17.6349 23.6519 17.5742 23.6131 17.5254 23.5616L14.9426 20.8352C14.8736 20.7625 14.7817 20.7156 14.6823 20.7025L10.9585 20.2154C10.8881 20.2062 10.8211 20.1799 10.7631 20.139C10.7052 20.098 10.6581 20.0436 10.6258 19.9803C10.5936 19.9171 10.5772 19.847 10.5782 19.776C10.5791 19.7051 10.5972 19.6354 10.6311 19.573L12.4263 16.2743C12.474 16.1861 12.49 16.0841 12.4715 15.9855L11.7839 12.2938C11.7708 12.2239 11.775 12.1519 11.796 12.084C11.8171 12.0161 11.8543 11.9543 11.9046 11.9041C11.9549 11.8538 12.0166 11.8165 12.0845 11.7955C12.1524 11.7745 12.2244 11.7703 12.2943 11.7834L15.9861 12.471C16.0847 12.4894 16.1866 12.4735 16.2748 12.4258L19.5736 10.6305C19.636 10.5967 19.7057 10.5785 19.7767 10.5777C19.8478 10.5768 19.9179 10.5932 19.9811 10.6255C20.0444 10.6578 20.0988 10.705 20.1397 10.7631C20.1806 10.8211 20.2068 10.8883 20.216 10.9587L20.7031 14.6818C20.7162 14.7812 20.763 14.8731 20.8358 14.9421L23.5621 17.5248C23.6136 17.5737 23.6525 17.6344 23.6753 17.7016C23.6981 17.7688 23.7042 17.8406 23.6931 17.9108C23.682 17.9809 23.654 18.0473 23.6114 18.1041C23.5689 18.161 23.5132 18.2067 23.4491 18.2372L20.0585 19.8509C19.9677 19.894 19.8946 19.9672 19.8514 20.0579ZM20.4325 21.463L21.4636 20.432L24.5574 23.5251L23.5257 24.5569L20.4325 21.463Z" fill="#F5F6FA"/>
</svg>
