<svg width="16" height="16" viewBox="0 0 16 16" fill="none" xmlns="http://www.w3.org/2000/svg">
<path d="M15.6822 7.53851C13.9894 3.97244 11.4305 2.1778 8.0001 2.1778C4.56796 2.1778 2.01082 3.97244 0.31796 7.5403C0.250059 7.68408 0.214844 7.84111 0.214844 8.00012C0.214844 8.15912 0.250059 8.31616 0.31796 8.45994C2.01082 12.026 4.56975 13.8207 8.0001 13.8207C11.4322 13.8207 13.9894 12.026 15.6822 8.45815C15.8197 8.16887 15.8197 7.83315 15.6822 7.53851ZM8.0001 12.5349C5.11975 12.5349 3.01082 11.0742 1.52332 7.99922C3.01082 4.92422 5.11975 3.46351 8.0001 3.46351C10.8805 3.46351 12.9894 4.92422 14.4769 7.99922C12.9912 11.0742 10.8822 12.5349 8.0001 12.5349ZM7.92867 4.85637C6.19296 4.85637 4.78582 6.26351 4.78582 7.99922C4.78582 9.73494 6.19296 11.1421 7.92867 11.1421C9.66439 11.1421 11.0715 9.73494 11.0715 7.99922C11.0715 6.26351 9.66439 4.85637 7.92867 4.85637ZM7.92867 9.99922C6.82332 9.99922 5.92867 9.10458 5.92867 7.99922C5.92867 6.89387 6.82332 5.99922 7.92867 5.99922C9.03403 5.99922 9.92868 6.89387 9.92868 7.99922C9.92868 9.10458 9.03403 9.99922 7.92867 9.99922Z" fill="black"/>
</svg>
