<svg width="32" height="32" viewBox="0 0 32 32" fill="none" xmlns="http://www.w3.org/2000/svg">
<path d="M0.222168 15.6667C0.222168 7.01421 7.23638 0 15.8888 0V0C24.5413 0 31.5555 7.01421 31.5555 15.6667V15.6667C31.5555 24.3191 24.5413 31.3333 15.8888 31.3333V31.3333C7.23638 31.3333 0.222168 24.3191 0.222168 15.6667V15.6667Z" fill="#13BEBA"/>
<path d="M31.5555 15.6667C31.5555 7.01328 24.5422 0 15.8888 0C7.23545 0 0.222168 7.01328 0.222168 15.6667C0.222168 23.4878 5.95029 29.9686 13.4409 31.1436V20.1953H9.46305V15.6667H13.4409V12.2151C13.4409 8.28926 15.7787 6.11979 19.3588 6.11979C21.0723 6.11979 22.8654 6.42578 22.8654 6.42578V10.2813H20.8887C18.9426 10.2813 18.3368 11.4899 18.3368 12.7292V15.6667H22.6818L21.9872 20.1953H18.3368V31.1436C25.8274 29.9686 31.5555 23.4878 31.5555 15.6667Z" fill="#13BEBA"/>
<path d="M21.9873 20.1954L22.6819 15.6667H18.3368V12.7292C18.3368 11.49 18.9427 10.2813 20.8888 10.2813H22.8655V6.42586C22.8655 6.42586 21.0724 6.11987 19.3588 6.11987C15.7788 6.11987 13.441 8.28934 13.441 12.2152V15.6667H9.46313V20.1954H13.441V31.1437C14.2396 31.2692 15.0566 31.3334 15.8889 31.3334C16.7212 31.3334 17.5382 31.2692 18.3368 31.1437V20.1954H21.9873Z" fill="white"/>
</svg>
