<svg width="24" height="24" viewBox="0 0 24 24" fill="none" xmlns="http://www.w3.org/2000/svg">
<path d="M23.0096 5.87728C22.6505 5.04595 22.1328 4.2926 21.4854 3.65942C20.8376 3.02435 20.0737 2.51966 19.2354 2.17281C18.3662 1.81172 17.4339 1.6269 16.4926 1.62906C15.1721 1.62906 13.8837 1.99067 12.764 2.67371C12.4962 2.8371 12.2417 3.01656 12.0006 3.2121C11.7596 3.01656 11.5051 2.8371 11.2372 2.67371C10.1176 1.99067 8.8292 1.62906 7.50866 1.62906C6.55777 1.62906 5.63634 1.81121 4.76581 2.17281C3.92473 2.52103 3.1667 3.02192 2.51581 3.65942C1.86758 4.29189 1.34977 5.04541 0.991699 5.87728C0.619378 6.74246 0.429199 7.66121 0.429199 8.60674C0.429199 9.49871 0.611342 10.4282 0.972949 11.3737C1.27563 12.1639 1.70956 12.9835 2.26402 13.8112C3.14259 15.121 4.35063 16.4871 5.85063 17.8719C8.33634 20.1675 10.7979 21.7532 10.9024 21.8175L11.5372 22.2246C11.8185 22.4041 12.1801 22.4041 12.4613 22.2246L13.0962 21.8175C13.2006 21.7505 15.6596 20.1675 18.1479 17.8719C19.6479 16.4871 20.856 15.121 21.7346 13.8112C22.289 12.9835 22.7256 12.1639 23.0256 11.3737C23.3872 10.4282 23.5694 9.49871 23.5694 8.60674C23.5721 7.66121 23.3819 6.74246 23.0096 5.87728ZM12.0006 20.1058C12.0006 20.1058 2.46491 13.996 2.46491 8.60674C2.46491 5.87728 4.72295 3.66478 7.50866 3.66478C9.4667 3.66478 11.1649 4.75763 12.0006 6.35406C12.8363 4.75763 14.5346 3.66478 16.4926 3.66478C19.2783 3.66478 21.5363 5.87728 21.5363 8.60674C21.5363 13.996 12.0006 20.1058 12.0006 20.1058Z" fill="#434343"/>
</svg>
