<svg width="14" height="14" viewBox="0 0 14 14" fill="none" xmlns="http://www.w3.org/2000/svg">
<g id="Property 1=heart" clip-path="url(#clip0)">
<path id="Vector" d="M6.99991 2.60039L6.73513 2.33561C6.03954 1.64002 5.09612 1.24924 4.11241 1.24924C3.1287 1.24924 2.18528 1.64002 1.48969 2.33561C0.794098 3.0312 0.40332 3.97462 0.40332 4.95833C0.40332 5.94204 0.794098 6.88546 1.48969 7.58105L2.10802 8.19938L6.64635 12.7377C6.84162 12.933 7.1582 12.933 7.35346 12.7377L11.8918 8.19938L12.51 7.58113C12.5101 7.58111 12.5101 7.58108 12.5101 7.58105C12.8546 7.23669 13.1279 6.82784 13.3144 6.37785C13.5008 5.92782 13.5968 5.44546 13.5968 4.95833C13.5968 4.4712 13.5008 3.98884 13.3144 3.53881C13.1279 3.08885 12.8547 2.68003 12.5102 2.33569C12.5102 2.33564 12.5101 2.33558 12.51 2.33553L6.99991 2.60039Z" stroke="#13BEBA" stroke-linecap="round" stroke-linejoin="round"/>
</g>
<defs>
<clipPath id="clip0">
<rect width="14" height="14" fill="white"/>
</clipPath>
</defs>
</svg>
