<svg width="26" height="26" viewBox="0 0 26 26" fill="none" xmlns="http://www.w3.org/2000/svg">
<path d="M17.4024 17.0153C17.4024 17.127 17.311 17.2184 17.1993 17.2184L15.5235 17.2108L12.9996 14.202L10.4784 17.2083L8.80003 17.2159C8.68831 17.2159 8.59691 17.127 8.59691 17.0128C8.59691 16.9645 8.61468 16.9188 8.64515 16.8807L11.9485 12.9452L8.64515 9.01217C8.61447 8.97495 8.59745 8.92836 8.59691 8.88013C8.59691 8.76842 8.68831 8.67701 8.80003 8.67701L10.4784 8.68463L12.9996 11.6934L15.5209 8.68716L17.1967 8.67955C17.3084 8.67955 17.3998 8.76842 17.3998 8.88267C17.3998 8.93092 17.3821 8.97662 17.3516 9.0147L14.0534 12.9477L17.3567 16.8833C17.3871 16.9188 17.4024 16.967 17.4024 17.0153Z" fill="#D3ADF7"/>
<path d="M13 24.375C6.71836 24.375 1.625 19.2816 1.625 13C1.625 6.71836 6.71836 1.625 13 1.625C19.2816 1.625 24.375 6.71836 24.375 13C24.375 19.2816 19.2816 24.375 13 24.375ZM13 3.55469C7.78477 3.55469 3.55469 7.78477 3.55469 13C3.55469 18.2152 7.78477 22.4453 13 22.4453C18.2152 22.4453 22.4453 18.2152 22.4453 13C22.4453 7.78477 18.2152 3.55469 13 3.55469Z" fill="#D3ADF7"/>
</svg>
