<svg width="64" height="64" viewBox="0 0 64 64" fill="none" xmlns="http://www.w3.org/2000/svg">
<rect width="64" height="64" rx="32" fill="#F3F4F8"/>
<path d="M22.5 40.003V40V26C22.5 25.7238 22.7315 25.5 22.992 25.5H41.008C41.2769 25.5 41.5 25.7182 41.5 26V40C41.5 40.2762 41.2686 40.5 41.008 40.5L22.993 40.5C22.9928 40.5 22.9926 40.5 22.9923 40.5C22.9275 40.4998 22.8634 40.4868 22.8036 40.4618C22.7436 40.4368 22.6891 40.4001 22.6433 40.3539C22.5975 40.3077 22.5612 40.253 22.5367 40.1928C22.5121 40.1325 22.4996 40.0681 22.5 40.003ZM24 26.5H23.5V27V39V39.5H24H40H40.5V39V27V26.5H40H24ZM34 36.5C34.9283 36.5 35.8185 36.1313 36.4749 35.4749C37.1313 34.8185 37.5 33.9283 37.5 33C37.5 32.0717 37.1313 31.1815 36.4749 30.5251C35.8185 29.8687 34.9283 29.5 34 29.5C33.0718 29.5 32.1815 29.8687 31.5251 30.5251C30.8688 31.1815 30.5 32.0717 30.5 33C30.5 33.9283 30.8688 34.8185 31.5251 35.4749C32.1815 36.1313 33.0718 36.5 34 36.5ZM34 37.5C32.8065 37.5 31.662 37.0259 30.818 36.182C29.9741 35.3381 29.5 34.1935 29.5 33C29.5 31.8065 29.9741 30.6619 30.818 29.818C31.662 28.9741 32.8065 28.5 34 28.5C35.1935 28.5 36.3381 28.9741 37.182 29.818C38.0259 30.6619 38.5 31.8065 38.5 33C38.5 34.1935 38.0259 35.3381 37.182 36.182C36.3381 37.0259 35.1935 37.5 34 37.5ZM24.5 22.5H29.5V23.5H24.5V22.5Z" fill="#09121F" stroke="#722ED1"/>
</svg>
