<svg width="35" height="35" viewBox="0 0 35 35" fill="none" xmlns="http://www.w3.org/2000/svg">
<path d="M0 17.5C0 7.83502 7.83502 0 17.5 0V0C27.165 0 35 7.83502 35 17.5V17.5C35 27.165 27.165 35 17.5 35V35C7.83502 35 0 27.165 0 17.5V17.5Z" fill="#7D7D7D"/>
<path d="M15.9189 12.3958L14.4605 13.8542H11.6693V22.6042H23.3359V13.8542H20.5447L19.0864 12.3958H15.9189ZM15.3151 10.9375H19.6901L21.1484 12.3958H24.0651C24.2585 12.3958 24.444 12.4727 24.5807 12.6094C24.7174 12.7461 24.7943 12.9316 24.7943 13.125V23.3333C24.7943 23.5267 24.7174 23.7122 24.5807 23.8489C24.444 23.9857 24.2585 24.0625 24.0651 24.0625H10.9401C10.7467 24.0625 10.5613 23.9857 10.4245 23.8489C10.2878 23.7122 10.2109 23.5267 10.2109 23.3333V13.125C10.2109 12.9316 10.2878 12.7461 10.4245 12.6094C10.5613 12.4727 10.7467 12.3958 10.9401 12.3958H13.8568L15.3151 10.9375ZM17.5026 21.875C16.439 21.875 15.4189 21.4525 14.6668 20.7004C13.9147 19.9483 13.4922 18.9282 13.4922 17.8646C13.4922 16.801 13.9147 15.7809 14.6668 15.0288C15.4189 14.2767 16.439 13.8542 17.5026 13.8542C18.5662 13.8542 19.5863 14.2767 20.3384 15.0288C21.0905 15.7809 21.513 16.801 21.513 17.8646C21.513 18.9282 21.0905 19.9483 20.3384 20.7004C19.5863 21.4525 18.5662 21.875 17.5026 21.875ZM17.5026 20.4167C18.1795 20.4167 18.8286 20.1478 19.3072 19.6692C19.7858 19.1906 20.0547 18.5414 20.0547 17.8646C20.0547 17.1877 19.7858 16.5386 19.3072 16.06C18.8286 15.5814 18.1795 15.3125 17.5026 15.3125C16.8257 15.3125 16.1766 15.5814 15.698 16.06C15.2194 16.5386 14.9505 17.1877 14.9505 17.8646C14.9505 18.5414 15.2194 19.1906 15.698 19.6692C16.1766 20.1478 16.8257 20.4167 17.5026 20.4167V20.4167Z" fill="#F5F6FA"/>
</svg>
