<svg width="16" height="16" viewBox="0 0 16 16" fill="none" xmlns="http://www.w3.org/2000/svg">
<path d="M15.4286 1.71106H0.571429C0.255357 1.71106 0 1.96642 0 2.28249V13.7111C0 14.0271 0.255357 14.2825 0.571429 14.2825H15.4286C15.7446 14.2825 16 14.0271 16 13.7111V2.28249C16 1.96642 15.7446 1.71106 15.4286 1.71106ZM14.7143 12.9968H1.28571V12.2843L3.75893 9.35034L6.43929 12.5289L10.6089 7.58606L14.7143 12.4539V12.9968ZM14.7143 10.6789L10.7179 5.93963C10.6607 5.87177 10.5571 5.87177 10.5 5.93963L6.43929 10.7539L3.86786 7.7057C3.81071 7.63785 3.70714 7.63785 3.65 7.7057L1.28571 10.5093V2.99677H14.7143V10.6789ZM4.28571 6.99677C4.49208 6.99677 4.69642 6.95613 4.88707 6.87716C5.07773 6.79818 5.25096 6.68243 5.39688 6.53651C5.5428 6.39059 5.65855 6.21736 5.73753 6.0267C5.8165 5.83605 5.85714 5.63171 5.85714 5.42535C5.85714 5.21898 5.8165 5.01464 5.73753 4.82399C5.65855 4.63333 5.5428 4.4601 5.39688 4.31418C5.25096 4.16826 5.07773 4.05251 4.88707 3.97353C4.69642 3.89456 4.49208 3.85392 4.28571 3.85392C3.86895 3.85392 3.46925 4.01948 3.17455 4.31418C2.87985 4.60888 2.71429 5.00858 2.71429 5.42535C2.71429 5.84211 2.87985 6.24181 3.17455 6.53651C3.46925 6.83121 3.86895 6.99677 4.28571 6.99677V6.99677ZM4.28571 4.92535C4.5625 4.92535 4.78571 5.14856 4.78571 5.42535C4.78571 5.70213 4.5625 5.92535 4.28571 5.92535C4.00893 5.92535 3.78571 5.70213 3.78571 5.42535C3.78571 5.14856 4.00893 4.92535 4.28571 4.92535Z" fill="#13BEBA"/>
</svg>
