<svg width="25" height="24" viewBox="0 0 25 24" fill="none" xmlns="http://www.w3.org/2000/svg">
<g clip-path="url(#clip0)">
<path d="M23.5095 5.87726C23.1505 5.04593 22.6328 4.29259 21.9854 3.6594C21.3376 3.02433 20.5737 2.51965 19.7354 2.1728C18.8662 1.81171 17.9338 1.62688 16.9926 1.62905C15.672 1.62905 14.3836 1.99065 13.264 2.67369C12.9961 2.83708 12.7417 3.01655 12.5006 3.21208C12.2595 3.01655 12.0051 2.83708 11.7372 2.67369C10.6176 1.99065 9.32918 1.62905 8.00865 1.62905C7.05775 1.62905 6.13633 1.81119 5.26579 2.1728C4.42472 2.52101 3.66668 3.0219 3.01579 3.6594C2.36757 4.29187 1.84975 5.0454 1.49168 5.87726C1.11936 6.74244 0.929184 7.66119 0.929184 8.60673C0.929184 9.49869 1.11133 10.4282 1.47293 11.3737C1.77561 12.1639 2.20954 12.9835 2.76401 13.8112C3.64258 15.121 4.85061 16.4871 6.35061 17.8719C8.83633 20.1674 11.2979 21.7532 11.4024 21.8174L12.0372 22.2246C12.3185 22.404 12.6801 22.404 12.9613 22.2246L13.5961 21.8174C13.7006 21.7505 16.1595 20.1674 18.6479 17.8719C20.1479 16.4871 21.356 15.121 22.2345 13.8112C22.789 12.9835 23.2256 12.1639 23.5256 11.3737C23.8872 10.4282 24.0694 9.49869 24.0694 8.60673C24.072 7.66119 23.8819 6.74244 23.5095 5.87726ZM12.5006 20.1058C12.5006 20.1058 2.9649 13.996 2.9649 8.60673C2.9649 5.87726 5.22293 3.66476 8.00865 3.66476C9.96668 3.66476 11.6649 4.75762 12.5006 6.35405C13.3363 4.75762 15.0345 3.66476 16.9926 3.66476C19.7783 3.66476 22.0363 5.87726 22.0363 8.60673C22.0363 13.996 12.5006 20.1058 12.5006 20.1058Z" fill="#434343"/>
</g>
<defs>
<clipPath id="clip0">
<rect width="24" height="24" fill="white" transform="translate(0.5)"/>
</clipPath>
</defs>
</svg>
