<svg width="84" height="83" viewBox="0 0 84 83" fill="none" xmlns="http://www.w3.org/2000/svg">
<rect x="0.5" width="83" height="83" rx="41.5" fill="#722ED1"/>
<path d="M41.9999 33.6717L41.1609 32.8327C39.9065 31.5783 38.2052 30.8736 36.4311 30.8736C34.6571 30.8736 32.9558 31.5783 31.7013 32.8327C30.4469 34.0871 29.7422 35.7885 29.7422 37.5625C29.7422 39.3365 30.4469 41.0379 31.7013 42.2923L32.8938 43.4848L41.6463 52.2373C41.8416 52.4326 42.1582 52.4326 42.3534 52.2373L51.1059 43.4848L52.2984 42.2924C52.2984 42.2924 52.2984 42.2923 52.2984 42.2923C52.9197 41.6713 53.4126 40.934 53.7488 40.1224C54.0851 39.3109 54.2582 38.441 54.2582 37.5625C54.2582 36.684 54.0851 35.8142 53.7488 35.0026C53.4126 34.191 52.9197 33.4537 52.2984 32.8326C51.6774 32.2114 50.9401 31.7186 50.1286 31.3823L49.9372 31.8442L50.1286 31.3823C49.317 31.046 48.4471 30.873 47.5686 30.873C46.6902 30.873 45.8203 31.046 45.0087 31.3823C44.1972 31.7186 43.4599 32.2114 42.8388 32.8327C42.8388 32.8327 42.8388 32.8328 42.8388 32.8328L41.9999 33.6717Z" stroke="white" stroke-linecap="round" stroke-linejoin="round"/>
</svg>
