<svg width="84" height="83" viewBox="0 0 84 83" fill="none" xmlns="http://www.w3.org/2000/svg">
<rect x="0.5" width="83" height="83" rx="41.5" fill="#722ED1"/>
<path d="M42 49.375C46.3492 49.375 49.875 45.8492 49.875 41.5C49.875 37.1508 46.3492 33.625 42 33.625C37.6508 33.625 34.125 37.1508 34.125 41.5C34.125 45.8492 37.6508 49.375 42 49.375Z" stroke="white" stroke-linecap="round" stroke-linejoin="round"/>
<path d="M42 38.125V41.5L43.6875 43.1875" stroke="white" stroke-linecap="round" stroke-linejoin="round"/>
<path d="M47.0738 47.5187L46.68 51.8275C46.6294 52.3885 46.3701 52.91 45.9535 53.2891C45.5369 53.6682 44.9933 53.8773 44.43 53.875H39.5588C38.9955 53.8773 38.4519 53.6682 38.0353 53.2891C37.6187 52.91 37.3595 52.3885 37.3088 51.8275L36.915 47.5187M36.9263 35.4812L37.32 31.1725C37.3706 30.6134 37.6282 30.0935 38.0424 29.7147C38.4566 29.3358 38.9975 29.1255 39.5588 29.125H44.4525C45.0158 29.1227 45.5594 29.3318 45.976 29.7109C46.3926 30.09 46.6519 30.6115 46.7025 31.1725L47.0963 35.4812" stroke="white" stroke-linecap="round" stroke-linejoin="round"/>
</svg>
