<svg width="64" height="64" viewBox="0 0 64 64" fill="none" xmlns="http://www.w3.org/2000/svg">
<rect width="64" height="64" rx="32" fill="#F3F4F8"/>
<path d="M40.4684 40.7236L40.4683 40.7237L38 43.2802L35.5317 40.7237L35.5316 40.7236C34.1558 39.2994 34.1558 36.9846 35.5316 35.5604L35.5342 35.5577C35.8521 35.2236 36.2347 34.9576 36.6585 34.7759C37.0824 34.5941 37.5388 34.5004 38 34.5004C38.4612 34.5004 38.9176 34.5941 39.3415 34.7759C39.7653 34.9576 40.1479 35.2236 40.4658 35.5577L40.4684 35.5604C41.8442 36.9846 41.8442 39.2994 40.4684 40.7236ZM39.7497 40.0283C40.7489 38.9935 40.7498 37.2945 39.7523 36.2584C39.528 36.0196 39.2572 35.8291 38.9565 35.6987C38.6546 35.5677 38.329 35.5002 38 35.5002C37.671 35.5002 37.3454 35.5677 37.0435 35.6987C36.7428 35.8291 36.472 36.0196 36.2477 36.2584C35.2501 37.2946 35.2513 38.9934 36.2501 40.0291L36.2505 40.0295L37.6405 41.4675L38.0002 41.8397L38.3597 41.4673L38.89 40.9179V40.9187L39.7497 40.0283ZM24.5167 41.5C24.6373 39.6935 25.4085 37.9849 26.6967 36.6967C27.9849 35.4085 29.6935 34.6373 31.5 34.5167V35.5192C29.959 35.6381 28.5044 36.3032 27.4038 37.4038C26.3032 38.5044 25.6381 39.959 25.5192 41.5H24.5167ZM32 32.5C28.9611 32.5 26.5 30.0389 26.5 27C26.5 23.9611 28.9611 21.5 32 21.5C35.0389 21.5 37.5 23.9611 37.5 27C37.5 30.0389 35.0389 32.5 32 32.5ZM32 31.5C34.4861 31.5 36.5 29.4861 36.5 27C36.5 24.5139 34.4861 22.5 32 22.5C29.5139 22.5 27.5 24.5139 27.5 27C27.5 29.4861 29.5139 31.5 32 31.5Z" fill="#09121F" stroke="#722ED1"/>
</svg>
