<svg width="32" height="32" viewBox="0 0 32 32" fill="none" xmlns="http://www.w3.org/2000/svg">
<g clip-path="url(#clip0)">
<rect width="31.3333" height="31.3333" rx="15.6667" fill="#13BEBA"/>
<path fill-rule="evenodd" clip-rule="evenodd" d="M15.6676 7.31128C13.3984 7.31128 13.1136 7.3212 12.2223 7.36176C11.3328 7.4025 10.7256 7.54332 10.1943 7.74995C9.64477 7.96337 9.17859 8.24885 8.71416 8.71346C8.24937 9.1779 7.96389 9.64407 7.74978 10.1935C7.54263 10.7249 7.40162 11.3323 7.36159 12.2214C7.32172 13.1127 7.31128 13.3977 7.31128 15.6669C7.31128 17.9362 7.32138 18.2201 7.36176 19.1114C7.40267 20.0009 7.5435 20.6081 7.74995 21.1393C7.96354 21.6889 8.24903 22.1551 8.71363 22.6195C9.1779 23.0843 9.64407 23.3705 10.1933 23.5839C10.7249 23.7905 11.3323 23.9313 12.2216 23.9721C13.1129 24.0126 13.3975 24.0226 15.6666 24.0226C17.936 24.0226 18.2199 24.0126 19.1112 23.9721C20.0007 23.9313 20.6086 23.7905 21.1402 23.5839C21.6896 23.3705 22.1551 23.0843 22.6193 22.6195C23.0841 22.1551 23.3696 21.6889 23.5837 21.1395C23.7891 20.6081 23.9301 20.0007 23.9719 19.1115C24.0119 18.2203 24.0224 17.9362 24.0224 15.6669C24.0224 13.3977 24.0119 13.1129 23.9719 12.2216C23.9301 11.3321 23.7891 10.7249 23.5837 10.1936C23.3696 9.64407 23.0841 9.1779 22.6193 8.71346C22.1546 8.24868 21.6898 7.96319 21.1397 7.74995C20.607 7.54332 19.9995 7.4025 19.11 7.36176C18.2187 7.3212 17.935 7.31128 15.665 7.31128H15.6676ZM14.918 8.81701C15.1405 8.81666 15.3887 8.81701 15.6676 8.81701C17.8985 8.81701 18.163 8.82502 19.044 8.86506C19.8586 8.90231 20.3008 9.03844 20.5953 9.1528C20.9853 9.30425 21.2633 9.48529 21.5555 9.77774C21.848 10.0702 22.029 10.3487 22.1808 10.7386C22.2952 11.0328 22.4315 11.475 22.4686 12.2897C22.5086 13.1705 22.5173 13.4351 22.5173 15.665C22.5173 17.8949 22.5086 18.1595 22.4686 19.0403C22.4313 19.855 22.2952 20.2971 22.1808 20.5913C22.0294 20.9813 21.848 21.2589 21.5555 21.5512C21.2631 21.8436 20.9854 22.0247 20.5953 22.1761C20.3011 22.291 19.8586 22.4268 19.044 22.464C18.1631 22.5041 17.8985 22.5128 15.6676 22.5128C13.4365 22.5128 13.172 22.5041 12.2912 22.464C11.4765 22.4264 11.0344 22.2903 10.7397 22.1759C10.3497 22.0245 10.0712 21.8435 9.77877 21.551C9.48632 21.2586 9.30528 20.9807 9.15349 20.5906C9.03912 20.2964 8.90282 19.8543 8.86574 19.0396C8.8257 18.1588 8.8177 17.8942 8.8177 15.6629C8.8177 13.4316 8.8257 13.1684 8.86574 12.2876C8.90299 11.4729 9.03912 11.0307 9.15349 10.7362C9.30493 10.3463 9.48632 10.0677 9.77877 9.7753C10.0712 9.48285 10.3497 9.30181 10.7397 9.15002C11.0342 9.03513 11.4765 8.89935 12.2912 8.86192C13.062 8.82711 13.3607 8.81666 14.918 8.81492V8.81701ZM20.1278 10.2044C19.5742 10.2044 19.1251 10.653 19.1251 11.2067C19.1251 11.7603 19.5742 12.2094 20.1278 12.2094C20.6813 12.2094 21.1304 11.7603 21.1304 11.2067C21.1304 10.6532 20.6813 10.2044 20.1278 10.2044ZM15.6676 11.3759C13.2979 11.3759 11.3767 13.2972 11.3767 15.6669C11.3767 18.0366 13.2979 19.957 15.6676 19.957C18.0373 19.957 19.9579 18.0366 19.9579 15.6669C19.9579 13.2972 18.0373 11.3759 15.6676 11.3759ZM15.6676 12.8817C17.2057 12.8817 18.4528 14.1286 18.4528 15.6669C18.4528 17.205 17.2057 18.4521 15.6676 18.4521C14.1293 18.4521 12.8824 17.205 12.8824 15.6669C12.8824 14.1286 14.1293 12.8817 15.6676 12.8817Z" fill="white"/>
</g>
<defs>
<clipPath id="clip0">
<rect width="31.3333" height="31.3333" fill="white"/>
</clipPath>
</defs>
</svg>
