<svg width="15" height="14" viewBox="0 0 15 14" fill="none" xmlns="http://www.w3.org/2000/svg">
<path d="M2.25 3.5H3.41667H12.75" stroke="#595959" stroke-linecap="round" stroke-linejoin="round"/>
<path d="M5.16699 3.49999V2.33332C5.16699 2.0239 5.28991 1.72716 5.5087 1.50837C5.72749 1.28957 6.02424 1.16666 6.33366 1.16666H8.66699C8.97641 1.16666 9.27316 1.28957 9.49195 1.50837C9.71074 1.72716 9.83366 2.0239 9.83366 2.33332V3.49999M11.5837 3.49999V11.6667C11.5837 11.9761 11.4607 12.2728 11.242 12.4916C11.0232 12.7104 10.7264 12.8333 10.417 12.8333H4.58366C4.27424 12.8333 3.97749 12.7104 3.7587 12.4916C3.53991 12.2728 3.41699 11.9761 3.41699 11.6667V3.49999H11.5837Z" stroke="#595959" stroke-linecap="round" stroke-linejoin="round"/>
</svg>
