<svg width="12" height="12" viewBox="0 0 12 12" fill="none" xmlns="http://www.w3.org/2000/svg">
<path d="M11.3252 10.5887L7.84708 7.11056C8.38682 6.41279 8.67878 5.55966 8.67878 4.66234C8.67878 3.58824 8.25958 2.58109 7.50155 1.82172C6.74351 1.06234 5.73369 0.644485 4.66092 0.644485C3.58816 0.644485 2.57833 1.06368 1.8203 1.82172C1.06092 2.57975 0.643066 3.58824 0.643066 4.66234C0.643066 5.73511 1.06226 6.74493 1.8203 7.50297C2.57833 8.26234 3.58682 8.6802 4.66092 8.6802C5.55824 8.6802 6.41003 8.38824 7.1078 7.84984L10.5859 11.3266C10.5961 11.3368 10.6082 11.3449 10.6216 11.3505C10.6349 11.356 10.6492 11.3588 10.6636 11.3588C10.678 11.3588 10.6923 11.356 10.7056 11.3505C10.719 11.3449 10.7311 11.3368 10.7413 11.3266L11.3252 10.744C11.3354 10.7338 11.3435 10.7217 11.349 10.7084C11.3546 10.6951 11.3574 10.6808 11.3574 10.6664C11.3574 10.6519 11.3546 10.6376 11.349 10.6243C11.3435 10.611 11.3354 10.5989 11.3252 10.5887ZM6.78235 6.78377C6.21449 7.35029 5.46182 7.66234 4.66092 7.66234C3.86003 7.66234 3.10735 7.35029 2.53949 6.78377C1.97298 6.21591 1.66092 5.46324 1.66092 4.66234C1.66092 3.86145 1.97298 3.10743 2.53949 2.54091C3.10735 1.9744 3.86003 1.66234 4.66092 1.66234C5.46182 1.66234 6.21583 1.97306 6.78235 2.54091C7.34887 3.10877 7.66092 3.86145 7.66092 4.66234C7.66092 5.46324 7.34887 6.21725 6.78235 6.78377Z" fill="#BFBFBF"/>
</svg>
