<svg width="16" height="16" viewBox="0 0 16 16" fill="none" xmlns="http://www.w3.org/2000/svg">
<path fill-rule="evenodd" clip-rule="evenodd" d="M5.33209 0.832887C5.23913 0.833112 5.15213 0.858706 5.07764 0.903113L0.418587 3.56543C0.2628 3.65445 0.166656 3.82012 0.166656 3.99955V14.6662C0.166656 14.8445 0.261536 15.0092 0.415693 15.0987C0.569851 15.1881 0.759975 15.1888 0.914726 15.1003L5.34906 12.5664L10.4341 15.109C10.499 15.1431 10.5723 15.1634 10.6501 15.1659C10.6556 15.1661 10.6611 15.1662 10.6666 15.1662C10.6688 15.1662 10.6709 15.1662 10.6731 15.1662C10.7641 15.165 10.8493 15.1396 10.9224 15.096L15.5814 12.4337C15.7372 12.3447 15.8333 12.179 15.8333 11.9996V1.33289C15.8333 1.15465 15.7384 0.989892 15.5843 0.900431C15.4301 0.81097 15.24 0.810335 15.0853 0.898764L10.6509 3.43267L5.56594 0.890175C5.49734 0.854061 5.41934 0.833421 5.33656 0.832896L5.33332 0.832886L5.33209 0.832887ZM11.1667 13.8046L14.8333 11.7094V2.19448L11.1667 4.28971V13.8046ZM10.1667 4.30857L5.83332 2.1419V11.6905L10.1667 13.8572V4.30857ZM1.16666 4.28971L4.83332 2.19448V11.7094L1.16666 13.8046V4.28971Z" fill="#13BEBA"/>
</svg>
