<svg width="24" height="25" viewBox="0 0 24 25" fill="none" xmlns="http://www.w3.org/2000/svg">
<g clip-path="url(#clip0_955_10182)">
<path d="M0 0.00384521H24V24.0038H0V0.00384521Z" fill="white"/>
<path d="M21 21.0038H3C2.73478 21.0038 2.48043 20.8985 2.29289 20.711C2.10536 20.5234 2 20.2691 2 20.0038V12.4908C1.99998 12.348 2.03059 12.2067 2.08976 12.0767C2.14892 11.9466 2.23528 11.8307 2.343 11.7368L6 8.54784V4.00385C6 3.73863 6.10536 3.48427 6.29289 3.29674C6.48043 3.1092 6.73478 3.00385 7 3.00385H21C21.2652 3.00385 21.5196 3.1092 21.7071 3.29674C21.8946 3.48427 22 3.73863 22 4.00385V20.0038C22 20.2691 21.8946 20.5234 21.7071 20.711C21.5196 20.8985 21.2652 21.0038 21 21.0038ZM9 19.0038H12V12.9458L8 9.45785L4 12.9458V19.0038H7V15.0038H9V19.0038ZM14 19.0038H20V5.00385H8V7.13085C8.234 7.13085 8.469 7.21285 8.657 7.37785L13.657 11.7368C13.7647 11.8307 13.8511 11.9466 13.9102 12.0767C13.9694 12.2067 14 12.348 14 12.4908V19.0038ZM16 11.0038H18V13.0038H16V11.0038ZM16 15.0038H18V17.0038H16V15.0038ZM16 7.00385H18V9.00385H16V7.00385ZM12 7.00385H14V9.00385H12V7.00385Z" fill="#09121F"/>
</g>
<defs>
<clipPath id="clip0_955_10182">
<rect width="24" height="24" fill="white" transform="translate(0 0.00384521)"/>
</clipPath>
</defs>
</svg>
