<svg width="35" height="35" viewBox="0 0 35 35" fill="none" xmlns="http://www.w3.org/2000/svg">
<path d="M0 17.5C0 7.83502 7.83502 0 17.5 0C27.165 0 35 7.83502 35 17.5C35 27.165 27.165 35 17.5 35C7.83502 35 0 27.165 0 17.5Z" fill="#7D7D7D"/>
<path d="M22.6016 9.47925C23.0041 9.47925 23.3307 9.80591 23.3307 10.2084V24.7917C23.3307 25.1942 23.0041 25.5209 22.6016 25.5209H12.3932C11.9907 25.5209 11.6641 25.1942 11.6641 24.7917V10.2084C11.6641 9.80591 11.9907 9.47925 12.3932 9.47925H22.6016ZM21.8724 17.5001H13.1224V24.0626H21.8724V17.5001ZM16.0391 18.9584V21.8751H14.5807V18.9584H16.0391ZM21.8724 10.9376H13.1224V16.0417H21.8724V10.9376ZM16.0391 12.3959V14.5834H14.5807V12.3959H16.0391Z" fill="#F5F6FA"/>
</svg>
