<svg width="64" height="64" viewBox="0 0 64 64" fill="none" xmlns="http://www.w3.org/2000/svg">
<rect width="64" height="64" rx="32" fill="#F3F4F8"/>
<path d="M31.6775 23.7271L31.4301 23.6918L31.2533 23.8685L23.4743 31.6465L23.1207 32.0001L23.4743 32.3537L31.9603 40.8387L32.3139 41.1922L32.6674 40.8387L40.4454 33.0607L40.6222 32.8839L40.5868 32.6364L39.5268 25.2114L39.4738 24.8401L39.1025 24.7871L31.6775 23.7271ZM31.0766 22.6304L40.3569 23.957L41.6825 33.2383L32.6673 42.2535C32.6673 42.2535 32.6673 42.2535 32.6673 42.2535C32.5735 42.3472 32.4464 42.3999 32.3138 42.3999C32.1813 42.3999 32.0542 42.3472 31.9604 42.2535C31.9604 42.2535 31.9604 42.2535 31.9604 42.2535L22.0605 32.3536C22.0604 32.3536 22.0604 32.3536 22.0604 32.3535L31.0766 22.6304ZM34.0805 30.2326C33.7991 29.9511 33.641 29.5694 33.6411 29.1713C33.6411 28.9742 33.68 28.7791 33.7554 28.597C33.8309 28.415 33.9415 28.2495 34.0808 28.1102C34.2202 27.9709 34.3857 27.8604 34.5678 27.785C34.7499 27.7096 34.945 27.6708 35.1421 27.6708C35.5401 27.6709 35.9218 27.8291 36.2032 28.1106C36.4846 28.3921 36.6427 28.7738 36.6426 29.1719C36.6425 29.5699 36.4844 29.9516 36.2029 30.233C35.9214 30.5144 35.5396 30.6724 35.1416 30.6724C34.7436 30.6723 34.3619 30.5141 34.0805 30.2326Z" fill="#09121F" stroke="#722ED1"/>
</svg>
