<svg width="25" height="24" viewBox="0 0 25 24" fill="none" xmlns="http://www.w3.org/2000/svg">
<path d="M4.92859 12C6.3093 12 7.42859 10.8807 7.42859 9.5C7.42859 8.11929 6.3093 7 4.92859 7C3.54788 7 2.42859 8.11929 2.42859 9.5C2.42859 10.8807 3.54788 12 4.92859 12Z" fill="#722ED1"/>
<path d="M9.42859 8C10.8093 8 11.9286 6.88071 11.9286 5.5C11.9286 4.11929 10.8093 3 9.42859 3C8.04788 3 6.92859 4.11929 6.92859 5.5C6.92859 6.88071 8.04788 8 9.42859 8Z" fill="#722ED1"/>
<path d="M15.4286 8C16.8093 8 17.9286 6.88071 17.9286 5.5C17.9286 4.11929 16.8093 3 15.4286 3C14.0479 3 12.9286 4.11929 12.9286 5.5C12.9286 6.88071 14.0479 8 15.4286 8Z" fill="#722ED1"/>
<path d="M19.9286 12C21.3093 12 22.4286 10.8807 22.4286 9.5C22.4286 8.11929 21.3093 7 19.9286 7C18.5479 7 17.4286 8.11929 17.4286 9.5C17.4286 10.8807 18.5479 12 19.9286 12Z" fill="#722ED1"/>
<path d="M17.7686 14.86C16.8986 13.84 16.1686 12.97 15.2886 11.95C14.8286 11.41 14.2386 10.87 13.5386 10.63C13.4286 10.59 13.3186 10.56 13.2086 10.54C12.9586 10.5 12.6886 10.5 12.4286 10.5C12.1686 10.5 11.8986 10.5 11.6386 10.55C11.5286 10.57 11.4186 10.6 11.3086 10.64C10.6086 10.88 10.0286 11.42 9.55861 11.96C8.68861 12.98 7.95861 13.85 7.07861 14.87C5.76861 16.18 4.15861 17.63 4.45861 19.66C4.74861 20.68 5.47861 21.69 6.78861 21.98C7.51861 22.13 9.84861 21.54 12.3286 21.54H12.5086C14.9886 21.54 17.3186 22.12 18.0486 21.98C19.3586 21.69 20.0886 20.67 20.3786 19.66C20.6886 17.62 19.0786 16.17 17.7686 14.86Z" fill="#722ED1"/>
</svg>
