<svg width="14" height="14" viewBox="0 0 14 14" fill="none" xmlns="http://www.w3.org/2000/svg">
<path d="M6.53125 1.37567H7.46875C7.55208 1.37567 7.59375 1.41734 7.59375 1.50067V12.5007C7.59375 12.584 7.55208 12.6257 7.46875 12.6257H6.53125C6.44792 12.6257 6.40625 12.584 6.40625 12.5007V1.50067C6.40625 1.41734 6.44792 1.37567 6.53125 1.37567Z" fill="black"/>
<path d="M1.75 6.40692H12.25C12.3333 6.40692 12.375 6.44859 12.375 6.53192V7.46942C12.375 7.55276 12.3333 7.59442 12.25 7.59442H1.75C1.66667 7.59442 1.625 7.55276 1.625 7.46942V6.53192C1.625 6.44859 1.66667 6.40692 1.75 6.40692Z" fill="black"/>
</svg>
