<svg width="32" height="25" viewBox="0 0 32 25" fill="none" xmlns="http://www.w3.org/2000/svg">
<path d="M19.0685 25V16.5598C19.0685 12.9986 19.4703 9.90029 20.274 7.26496C21.0776 4.62963 22.3196 2.20798 24 0H32C30.1735 2.2792 28.7489 4.62963 27.726 7.05128C26.7032 9.40171 26.1918 11.6097 26.1918 13.6752H31.8904V25H19.0685ZM0 25V16.5598C0 13.0698 0.365297 10.0071 1.09589 7.37179C1.89954 4.66524 3.14155 2.20798 4.82192 0H12.9315C11.105 2.2792 9.68036 4.62963 8.65753 7.05128C7.6347 9.40171 7.12329 11.6097 7.12329 13.6752H12.8219V25H0Z" fill="#13BEBA"/>
</svg>
