<svg width="64" height="64" viewBox="0 0 64 64" fill="none" xmlns="http://www.w3.org/2000/svg">
<rect width="64" height="64" rx="32" fill="#722ED1"/>
<path d="M31 35.5H29V34.5H34C34.2652 34.5 34.5196 34.3946 34.7071 34.2071C34.8946 34.0196 35 33.7652 35 33.5C35 33.2348 34.8946 32.9804 34.7071 32.7929C34.5196 32.6054 34.2652 32.5 34 32.5H30C29.4696 32.5 28.9609 32.2893 28.5858 31.9142C28.2107 31.5391 28 31.0304 28 30.5C28 29.9696 28.2107 29.4609 28.5858 29.0858C28.9609 28.7107 29.4696 28.5 30 28.5H31H31.5V28V26.5H32.5V28V28.5H33H35V29.5H30C29.7348 29.5 29.4804 29.6054 29.2929 29.7929C29.1054 29.9804 29 30.2348 29 30.5C29 30.7652 29.1054 31.0196 29.2929 31.2071C29.4804 31.3946 29.7348 31.5 30 31.5H34C34.5304 31.5 35.0391 31.7107 35.4142 32.0858C35.7893 32.4609 36 32.9696 36 33.5C36 34.0304 35.7893 34.5391 35.4142 34.9142C35.0391 35.2893 34.5304 35.5 34 35.5H33H32.5V36V37.5H31.5V36V35.5H31ZM32 41.5C26.7531 41.5 22.5 37.2469 22.5 32C22.5 26.7531 26.7531 22.5 32 22.5C37.2469 22.5 41.5 26.7531 41.5 32C41.5 37.2469 37.2469 41.5 32 41.5ZM32 40.5C34.2543 40.5 36.4163 39.6045 38.0104 38.0104C39.6045 36.4163 40.5 34.2543 40.5 32C40.5 29.7457 39.6045 27.5837 38.0104 25.9896C36.4163 24.3955 34.2543 23.5 32 23.5C29.7457 23.5 27.5837 24.3955 25.9896 25.9896C24.3955 27.5837 23.5 29.7457 23.5 32C23.5 34.2543 24.3955 36.4163 25.9896 38.0104C27.5837 39.6045 29.7457 40.5 32 40.5Z" fill="#09121F" stroke="white"/>
</svg>
