<svg width="64" height="64" viewBox="0 0 64 64" fill="none" xmlns="http://www.w3.org/2000/svg">
<rect width="64" height="64" rx="32" fill="#13BEBA"/>
<path d="M32.917 32.5H32.4957L32.4242 32.9152C32.1907 34.272 31.457 35.4919 30.368 36.3341C29.279 37.1764 27.9138 37.5798 26.5419 37.4647C25.17 37.3495 23.8911 36.7243 22.9577 35.7123C22.0244 34.7005 21.5043 33.3755 21.5 31.999C21.4989 30.6192 22.0164 29.2895 22.9499 28.2734C23.8835 27.2573 25.165 26.6292 26.5401 26.5138C27.9152 26.3984 29.2834 26.8041 30.3734 27.6505C31.4633 28.4969 32.1952 29.722 32.4239 31.0829L32.494 31.5H32.917H42.5V32.5H41H40.5V33V36.5H39.5V33V32.5H39H37H36.5V33V36.5H35.5V33V32.5H35H32.917ZM27 36.5C28.1935 36.5 29.3381 36.0259 30.182 35.182C31.0259 34.3381 31.5 33.1935 31.5 32C31.5 30.8065 31.0259 29.6619 30.182 28.818C29.3381 27.9741 28.1935 27.5 27 27.5C25.8065 27.5 24.6619 27.9741 23.818 28.818C22.9741 29.6619 22.5 30.8065 22.5 32C22.5 33.1935 22.9741 34.3381 23.818 35.182C24.6619 36.0259 25.8065 36.5 27 36.5Z" fill="#09121F" stroke="white"/>
</svg>
