<svg width="24" height="24" viewBox="0 0 24 24" fill="none" xmlns="http://www.w3.org/2000/svg">
<path d="M20.875 7H3.12503C1.95303 7 1.00003 7.897 1.00003 9V15C1.00003 16.103 1.95303 17 3.12503 17H20.875C22.047 17 23 16.103 23 15V9C23 7.897 22.047 7 20.875 7ZM20.875 15H3.12503C3.06803 15 3.02903 14.984 3.01203 14.984C3.00503 14.984 3.00103 14.986 3.00003 14.992L2.98803 9.046C2.99503 9.036 3.04003 9 3.12503 9H5.00003V12H7.00003V9H9.00003V13H11V9H13V12H15V9H17V13H19V9H20.875C20.954 9.001 20.997 9.028 21 9.008L21.012 14.954C21.005 14.964 20.96 15 20.875 15Z" fill="#722ED1"/>
</svg>
