<svg width="20" height="20" viewBox="0 0 20 20" fill="none" xmlns="http://www.w3.org/2000/svg">
<path d="M17.3958 5.83337H2.60409C1.62742 5.83337 0.833252 6.58087 0.833252 7.50004V12.5C0.833252 13.4192 1.62742 14.1667 2.60409 14.1667H17.3958C18.3724 14.1667 19.1666 13.4192 19.1666 12.5V7.50004C19.1666 6.58087 18.3724 5.83337 17.3958 5.83337ZM17.3958 12.5H2.60409C2.55659 12.5 2.52409 12.4867 2.50992 12.4867C2.50409 12.4867 2.50075 12.4884 2.49992 12.4934L2.48992 7.53837C2.49575 7.53004 2.53325 7.50004 2.60409 7.50004H4.16658V10H5.83325V7.50004H7.49992V10.8334H9.16658V7.50004H10.8333V10H12.4999V7.50004H14.1666V10.8334H15.8333V7.50004H17.3958C17.4616 7.50087 17.4974 7.52337 17.4999 7.50671L17.5099 12.4617C17.5041 12.47 17.4666 12.5 17.3958 12.5Z" fill="#13BEBA"/>
</svg>
