<svg width="24" height="24" viewBox="0 0 24 24" fill="none" xmlns="http://www.w3.org/2000/svg">
<path d="M0 0H24V24H0V0Z" fill="white"/>
<path d="M6.34435 14.621L3.51635 17.45L7.05135 20.985L20.4863 7.55001L16.9513 4.01501L14.8293 6.13601L16.2443 7.55001L14.8293 8.96401L13.4153 7.55001L11.2943 9.67201L13.4153 11.792L12.0013 13.208L9.88035 11.087L7.75835 13.208L9.17335 14.622L7.75835 16.037L6.34435 14.622V14.621ZM17.6583 1.89301L22.6083 6.84301C22.7958 7.03053 22.9011 7.28484 22.9011 7.55001C22.9011 7.81517 22.7958 8.06948 22.6083 8.25701L7.75835 23.107C7.57082 23.2945 7.31651 23.3998 7.05135 23.3998C6.78618 23.3998 6.53188 23.2945 6.34435 23.107L1.39435 18.157C1.20688 17.9695 1.10156 17.7152 1.10156 17.45C1.10156 17.1848 1.20688 16.9305 1.39435 16.743L16.2443 1.89301C16.4319 1.70554 16.6862 1.60022 16.9513 1.60022C17.2165 1.60022 17.4708 1.70554 17.6583 1.89301V1.89301Z" fill="#09121F"/>
</svg>
