<svg width="25" height="24" viewBox="0 0 25 24" fill="none" xmlns="http://www.w3.org/2000/svg">
<path d="M9.57141 17C9.57141 17.55 9.12141 18 8.57141 18C8.02141 18 7.57141 17.55 7.57141 17C7.57141 16.45 8.02141 16 8.57141 16C9.12141 16 9.57141 16.45 9.57141 17ZM12.5714 16C12.0214 16 11.5714 16.45 11.5714 17C11.5714 17.55 12.0214 18 12.5714 18C13.1214 18 13.5714 17.55 13.5714 17C13.5714 16.45 13.1214 16 12.5714 16ZM16.5714 16C16.0214 16 15.5714 16.45 15.5714 17C15.5714 17.55 16.0214 18 16.5714 18C17.1214 18 17.5714 17.55 17.5714 17C17.5714 16.45 17.1214 16 16.5714 16ZM19.5714 12V14H5.57141V12C5.57141 8.47 8.18141 5.57 11.5714 5.08V3H13.5714V5.08C16.9614 5.57 19.5714 8.47 19.5714 12ZM17.5714 12C17.5714 9.24 15.3314 7 12.5714 7C9.81141 7 7.57141 9.24 7.57141 12H17.5714ZM8.57141 19C8.02141 19 7.57141 19.45 7.57141 20C7.57141 20.55 8.02141 21 8.57141 21C9.12141 21 9.57141 20.55 9.57141 20C9.57141 19.45 9.12141 19 8.57141 19ZM12.5714 19C12.0214 19 11.5714 19.45 11.5714 20C11.5714 20.55 12.0214 21 12.5714 21C13.1214 21 13.5714 20.55 13.5714 20C13.5714 19.45 13.1214 19 12.5714 19ZM16.5714 19C16.0214 19 15.5714 19.45 15.5714 20C15.5714 20.55 16.0214 21 16.5714 21C17.1214 21 17.5714 20.55 17.5714 20C17.5714 19.45 17.1214 19 16.5714 19Z" fill="#722ED1"/>
</svg>
