<svg width="24" height="24" viewBox="0 0 24 24" fill="none" xmlns="http://www.w3.org/2000/svg">
<path d="M22.61 7.74577L15.8091 6.75738L12.7689 0.593983C12.6859 0.425233 12.5493 0.288626 12.3805 0.20559C11.9573 -0.00333828 11.443 0.170769 11.2314 0.593983L8.19123 6.75738L1.39033 7.74577C1.20283 7.77255 1.0314 7.86095 0.900155 7.99487C0.741481 8.15796 0.654044 8.37738 0.657058 8.6049C0.660071 8.83242 0.753288 9.04944 0.916226 9.20827L5.83676 14.0056L4.67426 20.7797C4.647 20.9373 4.66444 21.0993 4.7246 21.2475C4.78476 21.3957 4.88523 21.524 5.01462 21.618C5.14402 21.712 5.29716 21.7678 5.45667 21.7792C5.61619 21.7906 5.7757 21.757 5.91712 21.6824L12.0002 18.4842L18.0832 21.6824C18.2493 21.7708 18.4421 21.8002 18.6269 21.7681C19.093 21.6877 19.4064 21.2458 19.326 20.7797L18.1635 14.0056L23.0841 9.20827C23.218 9.07702 23.3064 8.90559 23.3332 8.71809C23.4055 8.24934 23.0787 7.81541 22.61 7.74577ZM16.093 13.3306L17.06 18.9636L12.0002 16.3065L6.94033 18.9663L7.9073 13.3333L3.81444 9.3422L9.47158 8.51988L12.0002 3.39577L14.5287 8.51988L20.1859 9.3422L16.093 13.3306Z" fill="#141414"/>
</svg>
