<svg width="31" height="31" viewBox="0 0 31 31" fill="none" xmlns="http://www.w3.org/2000/svg">
<circle cx="15.5" cy="15.5" r="15.5" fill="#C4C4C4"/>
<g clip-path="url(#clip0_629:5712)">
<path d="M15.3353 11.2284C15.3353 18.7974 15.3188 18.9228 14.4295 19.581C13.919 19.9728 13.0461 20.1608 12.4533 20.0198C12.2227 19.9571 11.7616 19.6907 11.4487 19.4086C10.4111 18.5154 10.5264 16.8856 11.6792 16.0864C12.1568 15.7573 13.4414 15.6633 14.1495 15.8983L14.5119 16.0237V13.8298V11.6201L14.0837 11.5261C13.8531 11.4634 13.0955 11.4634 12.4203 11.5105C7.7432 11.8395 4.8447 16.5565 6.82095 20.5996C8.20432 23.4047 11.5475 24.8621 14.7589 24.0629C16.6693 23.5928 18.2503 22.3391 19.1725 20.5683L19.6995 19.5497L19.7489 15.82L19.7983 12.0903L20.4406 12.4037C21.4123 12.8738 22.845 13.1872 24.0143 13.1872H25.0683L25.0189 11.103L24.9695 9.03444L23.9649 8.94042C21.6593 8.73669 20.0618 7.24795 19.8313 5.10103L19.7324 4.2548H17.5421H15.3353V11.2284ZM18.7937 6.16666C19.1396 7.31063 19.5678 7.93747 20.5065 8.75236C21.3958 9.53591 22.5486 10.0531 23.3556 10.0531C23.7179 10.0531 23.7344 10.1157 23.7344 11.056V12.0746L23.125 11.9806C22.071 11.8239 20.7864 11.3067 19.6995 10.5859L18.6455 9.91201L18.5961 14.4879L18.5467 19.0639L18.0032 20.1138C17.3445 21.3832 16.3234 22.2921 15.0224 22.7622C13.7214 23.2323 11.6628 23.1383 10.477 22.5585C7.97376 21.3361 6.82095 18.531 7.7926 16.055C8.48429 14.2685 10.5099 12.8111 12.4533 12.6858L13.2767 12.6388L13.3261 13.532L13.3755 14.4096L12.6674 14.5193C11.0864 14.77 9.91707 15.7573 9.57123 17.1207C9.17598 18.6564 9.96648 20.1922 11.531 20.9444C11.9427 21.1481 12.3874 21.1951 13.2108 21.1481C14.5777 21.0854 15.5164 20.5369 16.1093 19.4713L16.4881 18.7818V12.1373V5.50848H17.5256H18.5796L18.7937 6.16666Z" fill="white"/>
</g>
<defs>
<clipPath id="clip0_629:5712">
<rect width="21.08" height="20.0588" fill="white" transform="translate(4.95996 4.25488)"/>
</clipPath>
</defs>
</svg>
