<svg width="84" height="83" viewBox="0 0 84 83" fill="none" xmlns="http://www.w3.org/2000/svg">
<rect x="0.5" width="83" height="83" rx="41.5" fill="#722ED1"/>
<mask id="path-2-outside-1" maskUnits="userSpaceOnUse" x="30.875" y="33.75" width="23" height="2" fill="black">
<rect fill="white" x="30.875" y="33.75" width="23" height="2"/>
<path d="M31.875 34.75H34.125H52.125"/>
</mask>
<path d="M31.875 33.75C31.3227 33.75 30.875 34.1977 30.875 34.75C30.875 35.3023 31.3227 35.75 31.875 35.75V33.75ZM52.125 35.75C52.6773 35.75 53.125 35.3023 53.125 34.75C53.125 34.1977 52.6773 33.75 52.125 33.75V35.75ZM31.875 35.75H34.125V33.75H31.875V35.75ZM34.125 35.75H52.125V33.75H34.125V35.75Z" fill="white" mask="url(#path-2-outside-1)"/>
<path d="M37.5 34.75V32.5C37.5 31.9033 37.7371 31.331 38.159 30.909C38.581 30.4871 39.1533 30.25 39.75 30.25H44.25C44.8467 30.25 45.419 30.4871 45.841 30.909C46.2629 31.331 46.5 31.9033 46.5 32.5V34.75M49.875 34.75V50.5C49.875 51.0967 49.6379 51.669 49.216 52.091C48.794 52.5129 48.2217 52.75 47.625 52.75H36.375C35.7783 52.75 35.206 52.5129 34.784 52.091C34.3621 51.669 34.125 51.0967 34.125 50.5V34.75H49.875Z" stroke="white" stroke-width="2" stroke-linecap="round" stroke-linejoin="round"/>
</svg>
