<svg width="32" height="32" viewBox="0 0 32 32" fill="none" xmlns="http://www.w3.org/2000/svg">
<path fill-rule="evenodd" clip-rule="evenodd" d="M0.444336 15.6667C0.444336 7.01421 7.45854 0 16.111 0C24.7635 0 31.7777 7.01421 31.7777 15.6667C31.7777 24.3191 24.7635 31.3333 16.111 31.3333C7.45854 31.3333 0.444336 24.3191 0.444336 15.6667Z" fill="#13BEBA"/>
<path fill-rule="evenodd" clip-rule="evenodd" d="M15.6417 12.734L15.6746 13.2761L15.1267 13.2097C13.1322 12.9552 11.3898 12.0923 9.91041 10.643L9.18714 9.92389L9.00085 10.4549C8.60634 11.6387 8.85839 12.8889 9.68028 13.7297C10.1186 14.1943 10.02 14.2607 9.26385 13.9841C9.00085 13.8956 8.77072 13.8292 8.7488 13.8624C8.67209 13.9399 8.9351 14.9466 9.14331 15.3449C9.42823 15.8981 10.009 16.4402 10.6446 16.761L11.1816 17.0155L10.546 17.0265C9.93232 17.0265 9.91041 17.0376 9.97616 17.2699C10.1953 17.989 11.061 18.7524 12.0254 19.0843L12.7048 19.3166L12.1131 19.6707C11.2364 20.1796 10.2063 20.4672 9.17619 20.4893C8.68305 20.5004 8.27759 20.5447 8.27759 20.5778C8.27759 20.6885 9.61453 21.308 10.3926 21.5514C12.7267 22.2705 15.4992 21.9608 17.5814 20.7327C19.0608 19.8587 20.5402 18.1218 21.2305 16.4402C21.6031 15.544 21.9757 13.9067 21.9757 13.1212C21.9757 12.6123 22.0086 12.5459 22.6223 11.9374C22.9839 11.5834 23.3236 11.1962 23.3894 11.0855C23.499 10.8753 23.488 10.8753 22.9291 11.0634C21.9976 11.3953 21.8661 11.3511 22.3264 10.8532C22.6661 10.4992 23.0716 9.85751 23.0716 9.66943C23.0716 9.63624 22.9072 9.69156 22.7209 9.79113C22.5237 9.90176 22.0853 10.0677 21.7566 10.1673L21.1648 10.3554L20.6278 9.99027C20.332 9.79113 19.9155 9.56986 19.6964 9.50348C19.1375 9.34859 18.2827 9.37072 17.7786 9.54773C16.4088 10.0456 15.5431 11.3289 15.6417 12.734Z" fill="white"/>
</svg>
