<svg width="24" height="24" viewBox="0 0 24 24" fill="none" xmlns="http://www.w3.org/2000/svg">
<path d="M0 12C0 5.37258 5.37258 0 12 0C18.6274 0 24 5.37258 24 12C24 18.6274 18.6274 24 12 24C5.37258 24 0 18.6274 0 12Z" fill="url(#paint0_linear)"/>
<path d="M9.09521 9.32822C9.09521 9.19953 9.19953 9.09521 9.32822 9.09521H11.9574C12.0861 9.09521 12.1905 9.19953 12.1905 9.32822V11.9574C12.1905 12.0861 12.0861 12.1905 11.9574 12.1905H9.32822C9.19953 12.1905 9.09521 12.0861 9.09521 11.9574V9.32822Z" fill="white"/>
<path fill-rule="evenodd" clip-rule="evenodd" d="M6.5868 12.3495C6.26272 12.3495 6 12.6123 6 12.9363C6 16.2852 8.77157 19 12.1905 19C15.6094 19 18.381 16.2852 18.381 12.9363V6.19822C18.381 6.08874 18.2904 6 18.1786 6C16.6785 6 15.4624 7.19118 15.4624 8.66059V12.4549C15.4624 14.2249 13.9975 15.6597 12.1905 15.6597C10.3835 15.6597 8.91858 14.2249 8.91858 12.4549C8.91858 12.3967 8.87143 12.3495 8.81326 12.3495H6.5868Z" fill="white"/>
<path fill-rule="evenodd" clip-rule="evenodd" d="M6.24943 12.6865C6.18684 12.5736 6 12.6167 6 12.7458C6 16.1999 8.77157 19 12.1905 19C15.6094 19 18.381 16.1999 18.381 12.7458C18.381 12.6167 18.1941 12.5736 18.1315 12.6865C16.967 14.7869 14.7428 16.2065 12.1905 16.2065C9.63812 16.2065 7.41397 14.7869 6.24943 12.6865Z" fill="white"/>
<path fill-rule="evenodd" clip-rule="evenodd" d="M9.09524 8.58169C9.09524 7.15586 7.80554 6 6.21461 6C6.09608 6 6 6.08611 6 6.19234V8.7875C6 8.95746 6.15373 9.09524 6.34338 9.09524H8.75186C8.9415 9.09524 9.09524 8.95746 9.09524 8.7875V8.58169Z" fill="url(#paint1_linear)"/>
<defs>
<linearGradient id="paint0_linear" x1="1.5" y1="-3" x2="23.4601" y2="4.98496" gradientUnits="userSpaceOnUse">
<stop stop-color="#EB2F96"/>
<stop offset="1" stop-color="#305DCE"/>
</linearGradient>
<linearGradient id="paint1_linear" x1="6.24194" y1="6.88177" x2="8.8796" y2="7.16294" gradientUnits="userSpaceOnUse">
<stop stop-color="white"/>
<stop offset="1" stop-color="white"/>
</linearGradient>
</defs>
</svg>
