<svg width="18" height="12" viewBox="0 0 18 12" fill="none" xmlns="http://www.w3.org/2000/svg">
<path fill-rule="evenodd" clip-rule="evenodd" d="M2.66666 2.66622C2.66666 2.48212 2.8159 2.33289 2.99999 2.33289H10.3333C10.5174 2.33289 10.6667 2.48212 10.6667 2.66622L10.6667 5.99955L10.6667 9.33289C10.6667 9.51698 10.5174 9.66622 10.3333 9.66622H2.99999C2.8159 9.66622 2.66666 9.51698 2.66666 9.33289V2.66622ZM12.6667 4.05636V2.66622C12.6667 1.37755 11.622 0.332886 10.3333 0.332886H2.99999C1.71133 0.332886 0.666656 1.37755 0.666656 2.66622V9.33289C0.666656 10.6216 1.71133 11.6662 2.99999 11.6662H10.3333C11.622 11.6662 12.6667 10.6216 12.6667 9.33289V7.94274L15.7521 10.1466C16.0569 10.3643 16.4578 10.3935 16.7909 10.2221C17.124 10.0506 17.3333 9.70747 17.3333 9.33289V2.66622C17.3333 2.29163 17.124 1.94846 16.7909 1.77705C16.4578 1.60565 16.0569 1.63476 15.7521 1.85249L12.6667 4.05636ZM15.3333 7.3897L13.3871 5.99955L15.3333 4.60941V7.3897Z" fill="#13BEBA"/>
</svg>
