<svg width="18" height="16" viewBox="0 0 18 16" fill="none" xmlns="http://www.w3.org/2000/svg">
<path fill-rule="evenodd" clip-rule="evenodd" d="M2.66666 4.66622C2.66666 4.48212 2.8159 4.33289 2.99999 4.33289H10.3333C10.5174 4.33289 10.6667 4.48212 10.6667 4.66622L10.6667 7.99955L10.6667 11.3329C10.6667 11.517 10.5174 11.6662 10.3333 11.6662H2.99999C2.8159 11.6662 2.66666 11.517 2.66666 11.3329V4.66622ZM12.6667 6.05636V4.66622C12.6667 3.37755 11.622 2.33289 10.3333 2.33289H2.99999C1.71133 2.33289 0.666656 3.37755 0.666656 4.66622V11.3329C0.666656 12.6216 1.71133 13.6662 2.99999 13.6662H10.3333C11.622 13.6662 12.6667 12.6216 12.6667 11.3329V9.94274L15.7521 12.1466C16.0569 12.3643 16.4578 12.3935 16.7909 12.2221C17.124 12.0506 17.3333 11.7075 17.3333 11.3329V4.66622C17.3333 4.29163 17.124 3.94846 16.7909 3.77705C16.4578 3.60565 16.0569 3.63476 15.7521 3.85249L12.6667 6.05636ZM15.3333 9.3897L13.3871 7.99955L15.3333 6.60941V9.3897Z" fill="#13BEBA"/>
</svg>
