<svg width="24" height="24" viewBox="0 0 24 24" fill="none" xmlns="http://www.w3.org/2000/svg">
<path d="M0.5 12C0.5 5.64873 5.64873 0.5 12 0.5C18.3513 0.5 23.5 5.64873 23.5 12C23.5 18.3513 18.3513 23.5 12 23.5C5.64873 23.5 0.5 18.3513 0.5 12Z" stroke="#13BEBA"/>
<path d="M17.3568 7.6875H16.4206C16.2894 7.6875 16.1648 7.74777 16.0845 7.85089L10.5626 14.846L7.91484 11.4911C7.87478 11.4402 7.82373 11.3991 7.76551 11.3708C7.70729 11.3425 7.64341 11.3278 7.57868 11.3277H6.64252C6.55278 11.3277 6.50323 11.4308 6.55814 11.5004L10.2264 16.1478C10.3979 16.3647 10.7273 16.3647 10.9001 16.1478L17.4412 7.85893C17.4961 7.79063 17.4465 7.6875 17.3568 7.6875Z" fill="#13BEBA"/>
</svg>
