<svg width="15" height="14" viewBox="0 0 15 14" fill="none" xmlns="http://www.w3.org/2000/svg">
<g id="Eye" clip-path="url(#clip0_960_14548)">
<path id="Vector" d="M14.2215 6.59785C12.7402 3.47754 10.5012 1.90723 7.4996 1.90723C4.49648 1.90723 2.25898 3.47754 0.777727 6.59941C0.718314 6.72522 0.6875 6.86263 0.6875 7.00176C0.6875 7.14089 0.718314 7.27829 0.777727 7.4041C2.25898 10.5244 4.49804 12.0947 7.4996 12.0947C10.5027 12.0947 12.7402 10.5244 14.2215 7.40254C14.3418 7.14941 14.3418 6.85566 14.2215 6.59785ZM7.4996 10.9697C4.97929 10.9697 3.13398 9.6916 1.83241 7.00098C3.13398 4.31035 4.97929 3.03223 7.4996 3.03223C10.0199 3.03223 11.8652 4.31035 13.1668 7.00098C11.8668 9.6916 10.0215 10.9697 7.4996 10.9697ZM7.4371 4.25098C5.91835 4.25098 4.6871 5.48223 4.6871 7.00098C4.6871 8.51973 5.91835 9.75098 7.4371 9.75098C8.95585 9.75098 10.1871 8.51973 10.1871 7.00098C10.1871 5.48223 8.95585 4.25098 7.4371 4.25098ZM7.4371 8.75098C6.46991 8.75098 5.6871 7.96816 5.6871 7.00098C5.6871 6.03379 6.46991 5.25098 7.4371 5.25098C8.40429 5.25098 9.1871 6.03379 9.1871 7.00098C9.1871 7.96816 8.40429 8.75098 7.4371 8.75098Z" fill="#722ED1"/>
</g>
<defs>
<clipPath id="clip0_960_14548">
<rect width="14" height="14" fill="white" transform="translate(0.5)"/>
</clipPath>
</defs>
</svg>
