<svg width="32" height="32" viewBox="0 0 32 32" fill="none" xmlns="http://www.w3.org/2000/svg">
<path fill-rule="evenodd" clip-rule="evenodd" d="M0.666748 15.6667C0.666748 7.01421 7.68095 0 16.3334 0C24.9859 0 32.0001 7.01421 32.0001 15.6667C32.0001 24.3191 24.9859 31.3333 16.3334 31.3333C7.68095 31.3333 0.666748 24.3191 0.666748 15.6667Z" fill="#13BEBA"/>
<path fill-rule="evenodd" clip-rule="evenodd" d="M22.8624 10.281C23.5815 10.4783 24.1477 11.0596 24.3399 11.7979C24.6891 13.136 24.6891 15.9279 24.6891 15.9279C24.6891 15.9279 24.6891 18.7197 24.3399 20.0579C24.1477 20.7962 23.5815 21.3776 22.8624 21.575C21.5593 21.9335 16.3336 21.9335 16.3336 21.9335C16.3336 21.9335 11.1078 21.9335 9.80467 21.575C9.08561 21.3776 8.51933 20.7962 8.32716 20.0579C7.97803 18.7197 7.97803 15.9279 7.97803 15.9279C7.97803 15.9279 7.97803 13.136 8.32716 11.7979C8.51933 11.0596 9.08561 10.4783 9.80467 10.281C11.1078 9.92236 16.3336 9.92236 16.3336 9.92236C16.3336 9.92236 21.5593 9.92236 22.8624 10.281ZM14.7669 13.5779V18.8001L18.9447 16.1891L14.7669 13.5779Z" fill="white"/>
</svg>
